<svg width="114" height="28" viewBox="0 0 114 28" fill="none" xmlns="http://www.w3.org/2000/svg">
<g clip-path="url(#clip0_378_1842)">
<path d="M42.1322 0.0161133H23.3023C23.1986 0.0161133 23.1189 0.0968515 23.1189 0.201811V27.7981C23.1189 27.9031 23.1986 27.9838 23.3023 27.9838H42.1322C42.2358 27.9838 42.3155 27.9031 42.3155 27.7981V22.1787C42.3155 22.0738 42.2358 21.993 42.1322 21.993H30.3097C30.206 21.993 30.1263 21.9123 30.1263 21.8073V16.9873C30.1263 16.8823 30.206 16.8016 30.3097 16.8016H40.5617C40.6653 16.8016 40.7451 16.7208 40.7451 16.6159V11.1176C40.7451 11.0127 40.6653 10.9319 40.5617 10.9319H30.3097C30.206 10.9319 30.1263 10.8512 30.1263 10.7462V6.20066C30.1263 6.0957 30.206 6.01496 30.3097 6.01496H42.1322C42.2358 6.01496 42.3155 5.93422 42.3155 5.82926V0.201811C42.3155 0.0968515 42.2358 0.0161133 42.1322 0.0161133Z" fill="black"/>
<path d="M19.0133 0.0161133H0.183357C0.0797203 0.0161133 0 0.0968515 0 0.201811V27.7981C0 27.9031 0.0797203 27.9838 0.183357 27.9838H6.81608C6.91972 27.9838 6.99944 27.9031 6.99944 27.7981V16.9792C6.99944 16.8742 7.07916 16.7935 7.1828 16.7935H17.4348C17.5385 16.7935 17.6182 16.7128 17.6182 16.6078V11.1095C17.6182 11.0046 17.5385 10.9238 17.4348 10.9238H7.1828C7.07916 10.9238 6.99944 10.8431 6.99944 10.7381V6.19258C6.99944 6.08762 7.07916 6.00689 7.1828 6.00689H19.0053C19.109 6.00689 19.1887 5.92615 19.1887 5.82119V0.201811C19.1887 0.0968515 19.109 0.0161133 19.0053 0.0161133H19.0133Z" fill="black"/>
<path d="M88.8323 0.0161133H70.0024C69.8987 0.0161133 69.819 0.0968515 69.819 0.201811V27.7981C69.819 27.9031 69.8987 27.9838 70.0024 27.9838H88.8323C88.936 27.9838 89.0157 27.9031 89.0157 27.7981V22.1787C89.0157 22.0738 88.936 21.993 88.8323 21.993H77.0098C76.9062 21.993 76.8264 21.9123 76.8264 21.8073V16.9873C76.8264 16.8823 76.9062 16.8016 77.0098 16.8016H87.2618C87.3655 16.8016 87.4452 16.7208 87.4452 16.6159V11.1176C87.4452 11.0127 87.3655 10.9319 87.2618 10.9319H77.0098C76.9062 10.9319 76.8264 10.8512 76.8264 10.7462V6.20066C76.8264 6.0957 76.9062 6.01496 77.0098 6.01496H88.8323C88.936 6.01496 89.0157 5.93422 89.0157 5.82926V0.201811C89.0157 0.0968515 88.936 0.0161133 88.8323 0.0161133Z" fill="black"/>
<path d="M111.911 13.6125C110.532 12.2641 108.491 11.3357 105.773 10.8351L101.683 10.1004C100.974 9.98733 100.463 9.71282 100.153 9.32528C99.8417 8.93773 99.6822 8.39679 99.6822 7.74281C99.6822 7.00809 99.9613 6.43485 100.511 6.00694C101.061 5.57903 101.851 5.39333 102.911 5.39333C103.891 5.39333 104.681 5.65976 105.231 6.20071C105.749 6.70936 106.1 7.4683 106.267 8.49367C106.283 8.59056 106.371 8.66322 106.466 8.64708L113.306 7.91236C113.41 7.90429 113.482 7.8074 113.474 7.70244C113.203 5.4014 112.15 3.53635 110.309 2.14765C108.42 0.718587 105.94 -0.00805664 102.879 -0.00805664C99.8178 -0.00805664 97.2906 0.799325 95.4092 2.42216C93.5199 4.045 92.5792 6.04731 92.5792 8.39679C92.5792 10.7463 93.2488 12.4498 94.628 13.8305C96.0071 15.2192 98.0081 16.1477 100.647 16.6079L104.107 17.2215C105.047 17.4152 105.717 17.6817 106.116 18.0692C106.243 18.1984 106.355 18.3437 106.443 18.5214C107.08 19.7728 106.586 21.3714 105.358 22.0415C104.776 22.3564 104.043 22.5098 103.126 22.5098C101.747 22.5098 100.687 22.1626 99.9373 21.4683C99.2278 20.8062 98.8372 19.8293 98.7655 18.5456C98.7655 18.4406 98.6698 18.3599 98.5662 18.368L91.8059 19.1027C91.7102 19.1107 91.6385 19.1996 91.6385 19.2964C91.7182 21.9527 92.7785 24.0519 94.7794 25.6021C96.8283 27.1846 99.6185 27.9919 103.118 27.9919H103.27C106.498 27.9919 109.097 26.9908 111.066 25.2953C113.035 23.5998 114.016 21.436 114.016 18.8524C114.016 16.6967 113.306 14.9608 111.935 13.6044L111.911 13.6125Z" fill="black"/>
<path d="M52.2009 0.0808105H45.7435C45.6399 0.0808105 45.5602 0.161549 45.5602 0.266508V27.9839L45.7196 26.9101C46.0704 24.5203 46.9473 22.2192 48.3902 20.2976C49.3469 19.022 50.6463 17.7463 52.3762 16.8421C52.5197 16.7613 52.9981 16.5756 53.2691 16.7452C53.5003 16.8905 53.5402 17.27 53.5322 17.5687C53.5322 17.8674 52.6473 23.6725 54.3055 26.5145C54.9353 27.5964 56.1789 28.1293 57.3986 27.9355C59.6706 27.5722 61.7992 25.7717 63.4892 23.4707C65.3866 20.8951 66.5186 17.6898 66.5186 13.5076C66.5186 9.32533 65.4583 6.05544 63.3298 3.66559C61.2172 1.27574 58.6741 0.0808105 52.2009 0.0808105ZM57.8371 16.4464L55.9318 12.4903C55.8919 12.4095 55.8202 12.3611 55.7325 12.3611L51.3957 12.1512C50.9333 12.1269 50.8217 11.4891 51.2522 11.3115L58.2118 8.42106C58.3632 8.35647 58.5306 8.46951 58.5306 8.63098L58.6582 16.2446C58.6662 16.7129 58.0364 16.8663 57.8371 16.4464Z" fill="black"/>
</g>
<defs>
<clipPath id="clip0_378_1842">
<rect width="114" height="28" fill="white"/>
</clipPath>
</defs>
</svg>
