<svg width="165" height="38" viewBox="0 0 165 38" fill="none" xmlns="http://www.w3.org/2000/svg">
<path d="M60.6112 0.032872H33.5225C33.3734 0.032872 33.2587 0.142445 33.2587 0.28489V37.737C33.2587 37.8795 33.3734 37.989 33.5225 37.989H60.6112C60.7603 37.989 60.875 37.8795 60.875 37.737V30.1107C60.875 29.9683 60.7603 29.8587 60.6112 29.8587H43.6034C43.4543 29.8587 43.3396 29.7491 43.3396 29.6067V23.0652C43.3396 22.9227 43.4543 22.8131 43.6034 22.8131H58.3519C58.501 22.8131 58.6157 22.7036 58.6157 22.5611V15.0992C58.6157 14.9567 58.501 14.8472 58.3519 14.8472H43.6034C43.4543 14.8472 43.3396 14.7376 43.3396 14.5952V8.42618C43.3396 8.28374 43.4543 8.17416 43.6034 8.17416H60.6112C60.7603 8.17416 60.875 8.06459 60.875 7.92214V0.28489C60.875 0.142445 60.7603 0.032872 60.6112 0.032872Z" fill="url(#paint0_linear_349_427)"/>
<path d="M27.3524 0.032872H0.263776C0.114685 0.032872 0 0.142445 0 0.28489V37.737C0 37.8795 0.114685 37.989 0.263776 37.989H9.8056C9.95469 37.989 10.0694 37.8795 10.0694 37.737V23.0542C10.0694 22.9118 10.1841 22.8022 10.3331 22.8022H25.0817C25.2308 22.8022 25.3455 22.6926 25.3455 22.5502V15.0882C25.3455 14.9458 25.2308 14.8362 25.0817 14.8362H10.3331C10.1841 14.8362 10.0694 14.7266 10.0694 14.5842V8.41522C10.0694 8.27278 10.1841 8.16321 10.3331 8.16321H27.341C27.4901 8.16321 27.6048 8.05363 27.6048 7.91119V0.28489C27.6048 0.142445 27.4901 0.032872 27.341 0.032872H27.3524Z" fill="url(#paint1_linear_349_427)"/>
<path d="M127.794 0.032872H100.705C100.556 0.032872 100.441 0.142445 100.441 0.28489V37.737C100.441 37.8795 100.556 37.989 100.705 37.989H127.794C127.943 37.989 128.058 37.8795 128.058 37.737V30.1107C128.058 29.9683 127.943 29.8587 127.794 29.8587H110.786C110.637 29.8587 110.522 29.7491 110.522 29.6067V23.0652C110.522 22.9227 110.637 22.8131 110.786 22.8131H125.535C125.684 22.8131 125.798 22.7036 125.798 22.5611V15.0992C125.798 14.9567 125.684 14.8472 125.535 14.8472H110.786C110.637 14.8472 110.522 14.7376 110.522 14.5952V8.42618C110.522 8.28374 110.637 8.17416 110.786 8.17416H127.794C127.943 8.17416 128.058 8.06459 128.058 7.92214V0.28489C128.058 0.142445 127.943 0.032872 127.794 0.032872Z" fill="url(#paint2_linear_349_427)"/>
<path d="M160.995 18.485C159.011 16.6551 156.075 15.395 152.164 14.7157L146.281 13.7186C145.26 13.5652 144.526 13.1926 144.079 12.6667C143.632 12.1407 143.403 11.4066 143.403 10.519C143.403 9.52192 143.804 8.74395 144.595 8.16321C145.387 7.58247 146.522 7.33045 148.047 7.33045C149.458 7.33045 150.593 7.69204 151.385 8.42618C152.13 9.11649 152.635 10.1465 152.876 11.5381C152.898 11.6696 153.025 11.7682 153.162 11.7463L163.002 10.7491C163.151 10.7382 163.255 10.6067 163.243 10.4642C162.853 7.34141 161.339 4.81027 158.69 2.92561C155.972 0.986159 152.405 0 148.001 0C143.597 0 139.962 1.09573 137.255 3.29815C134.537 5.50058 133.184 8.21799 133.184 11.4066C133.184 14.5952 134.147 16.9072 136.131 18.7809C138.116 20.6655 140.994 21.9256 144.79 22.5502L149.768 23.3829C151.121 23.6459 152.084 24.0075 152.658 24.5334C152.841 24.7088 153.002 24.906 153.128 25.1471C154.045 26.8454 153.334 29.015 151.568 29.9245C150.731 30.3518 149.676 30.56 148.357 30.56C146.373 30.56 144.848 30.0888 143.77 29.1465C142.749 28.248 142.187 26.9221 142.084 25.1799C142.084 25.0375 141.946 24.9279 141.797 24.9389L132.072 25.936C131.934 25.9469 131.831 26.0675 131.831 26.199C131.945 29.8039 133.471 32.6528 136.349 34.7566C139.297 36.9043 143.311 38 148.345 38H148.563C153.208 38 156.947 36.6413 159.78 34.3403C162.612 32.0392 164.023 29.1027 164.023 25.5963C164.023 22.6707 163.002 20.3149 161.03 18.4741L160.995 18.485Z" fill="url(#paint3_linear_349_427)"/>
<path d="M75.0959 0.120531H65.8064C65.6573 0.120531 65.5427 0.230104 65.5427 0.372549V37.989L65.772 36.5317C66.2766 33.2884 67.5382 30.1655 69.614 27.5577C70.9902 25.8264 72.8596 24.0952 75.3482 22.8679C75.5547 22.7584 76.2428 22.5063 76.6327 22.7364C76.9653 22.9337 77.0227 23.4487 77.0112 23.8541C77.0112 24.2595 75.7382 32.1378 78.1236 35.9948C79.0297 37.4631 80.8187 38.1863 82.5734 37.9233C85.842 37.4302 88.9041 34.9867 91.3354 31.8639C94.0649 28.3685 95.6934 24.0185 95.6934 18.3426C95.6934 12.6667 94.1681 8.22895 91.106 4.98558C88.0669 1.74221 84.4084 0.120531 75.0959 0.120531ZM83.2042 22.331L80.4632 16.9619C80.4059 16.8524 80.3027 16.7866 80.1765 16.7866L73.9376 16.5017C73.2724 16.4689 73.1119 15.6032 73.7312 15.3622L83.7432 11.4394C83.9611 11.3518 84.202 11.5052 84.202 11.7243L84.3855 22.0571C84.3969 22.6926 83.4909 22.9008 83.2042 22.331Z" fill="url(#paint4_linear_349_427)"/>
<defs>
<linearGradient id="paint0_linear_349_427" x1="66.0115" y1="-8.5" x2="80.5115" y2="42" gradientUnits="userSpaceOnUse">
<stop stop-color="#1B5EBF"/>
<stop offset="1" stop-color="#5EC2CC"/>
</linearGradient>
<linearGradient id="paint1_linear_349_427" x1="66.0115" y1="-8.5" x2="80.5115" y2="42" gradientUnits="userSpaceOnUse">
<stop stop-color="#1B5EBF"/>
<stop offset="1" stop-color="#5EC2CC"/>
</linearGradient>
<linearGradient id="paint2_linear_349_427" x1="66.0115" y1="-8.5" x2="80.5115" y2="42" gradientUnits="userSpaceOnUse">
<stop stop-color="#1B5EBF"/>
<stop offset="1" stop-color="#5EC2CC"/>
</linearGradient>
<linearGradient id="paint3_linear_349_427" x1="66.0115" y1="-8.5" x2="80.5115" y2="42" gradientUnits="userSpaceOnUse">
<stop stop-color="#1B5EBF"/>
<stop offset="1" stop-color="#5EC2CC"/>
</linearGradient>
<linearGradient id="paint4_linear_349_427" x1="66.0115" y1="-8.5" x2="80.5115" y2="42" gradientUnits="userSpaceOnUse">
<stop stop-color="#1B5EBF"/>
<stop offset="1" stop-color="#5EC2CC"/>
</linearGradient>
</defs>
</svg>
