<svg width="1280" height="1580" viewBox="0 0 1280 1580" fill="none" xmlns="http://www.w3.org/2000/svg">
<path d="M1280 624.011L-50.2214 -5.81458e-05L-51.9556 0.108096L-51.9557 1579.79L-50.2214 1579.9L1280 955.89L1280 624.011ZM-50.1133 130.188L-50.1133 1.02936L236.126 135.305L236.126 239.43L-50.1133 130.188ZM-50.1133 232.049L-50.1133 131.028L236.126 240.271L236.126 322.344L-50.1133 232.049ZM-50.1133 315.84L-50.1133 232.79L236.126 323.085L236.126 391.075L-50.1133 315.84ZM-50.1134 387.453L-50.1133 316.506L236.126 391.742L236.126 450.249L-50.1134 387.453ZM-50.1134 450.55L-50.1134 388.065L236.126 450.861L236.126 502.74L-50.1134 450.55ZM-50.1134 507.534L-50.1134 451.119L236.126 503.309L236.126 550.433L-50.1134 507.534ZM-50.1134 560.069L-50.1134 508.07L236.126 550.969L236.126 594.634L-50.1134 560.069ZM-50.1134 609.354L-50.1134 560.579L236.126 595.144L236.126 636.285L-50.1134 609.354ZM-50.1134 656.298L-50.1134 609.845L236.126 636.776L236.126 676.098L-50.1134 656.298ZM-50.1134 701.62L-50.1134 656.775L236.126 676.575L236.126 714.638L-50.1134 701.62ZM-50.1134 745.919L-50.1134 702.087L236.126 715.105L236.126 752.374L-50.1134 745.919ZM-50.1134 789.72L-50.1134 746.38L236.126 752.836L236.126 789.72L-50.1134 789.72ZM-50.1134 833.521L-50.1134 790.18L236.126 790.18L236.126 827.065L-50.1134 833.521ZM-50.1134 877.813L-50.1134 833.982L236.126 827.527L236.126 864.795L-50.1134 877.813ZM-50.1134 923.126L-50.1134 878.28L236.126 865.263L236.126 903.326L-50.1134 923.126ZM-50.1134 970.056L-50.1134 923.603L236.126 903.803L236.126 943.125L-50.1134 970.056ZM-50.1134 1019.32L-50.1134 970.547L236.126 943.616L236.126 984.756L-50.1134 1019.32ZM-50.1134 1071.83L-50.1134 1019.83L236.126 985.266L236.126 1028.93L-50.1134 1071.83ZM-50.1134 1128.78L-50.1134 1072.37L236.126 1029.47L236.126 1076.59L-50.1134 1128.78ZM-50.1134 1191.84L-50.1134 1129.35L236.126 1077.16L236.126 1129.04L-50.1134 1191.84ZM-50.1134 1263.39L-50.1134 1192.45L236.126 1129.65L236.126 1188.16L-50.1134 1263.39ZM-50.1134 1347.11L-50.1134 1264.06L236.126 1188.83L236.126 1256.82L-50.1134 1347.11ZM-50.1134 1448.87L-50.1134 1347.85L236.126 1257.56L236.126 1339.63L-50.1134 1448.87ZM-50.1134 1578.87L-50.1134 1449.71L236.126 1340.47L236.126 1444.6L-50.1134 1578.87ZM237.969 240.134L237.969 136.169L468.777 244.442L468.777 328.221L237.969 240.134ZM237.969 322.925L237.969 240.974L468.777 329.062L468.777 395.734L237.969 322.925ZM237.969 391.559L237.969 323.666L468.777 396.475L468.777 452.225L237.969 391.559ZM237.969 450.653L237.969 392.226L468.777 452.892L468.777 501.289L237.969 450.653ZM237.969 503.076L237.969 451.265L468.777 501.901L468.777 545.159L237.969 503.076ZM237.969 550.709L237.969 503.644L468.777 545.728L468.777 585.301L237.969 550.709ZM237.969 594.856L237.969 551.245L468.777 585.837L468.777 622.728L237.969 594.856ZM237.969 636.458L237.969 595.367L468.777 623.239L468.777 658.173L237.969 636.458ZM237.969 676.225L237.969 636.949L468.777 658.665L468.777 692.191L237.969 676.225ZM237.969 714.722L237.969 676.702L468.777 692.668L468.777 725.219L237.969 714.722ZM237.969 752.416L237.969 715.188L468.777 725.685L468.777 757.621L237.969 752.416ZM237.969 789.72L237.969 752.877L468.777 758.083L468.777 789.72L237.969 789.72ZM237.969 827.024L237.969 790.18L468.777 790.18L468.777 821.818L237.969 827.024ZM237.969 864.712L237.969 827.485L468.777 822.28L468.777 854.215L237.969 864.712ZM237.969 903.198L237.969 865.179L468.777 854.682L468.777 887.233L237.969 903.198ZM237.969 942.951L237.969 903.675L468.777 887.71L468.777 921.236L237.969 942.951ZM237.969 984.534L237.969 943.443L468.777 921.727L468.777 956.662L237.969 984.534ZM237.969 1028.66L237.969 985.044L468.777 957.173L468.777 994.064L237.969 1028.66ZM237.969 1076.26L237.969 1029.19L468.777 994.6L468.777 1034.17L237.969 1076.26ZM237.969 1128.63L237.969 1076.82L468.777 1034.74L468.777 1078L237.969 1128.63ZM237.969 1187.67L237.969 1129.25L468.777 1078.61L468.777 1127.01L237.969 1187.67ZM237.969 1256.23L237.969 1188.34L468.777 1127.68L468.777 1183.43L237.969 1256.23ZM237.969 1338.93L237.969 1256.98L468.777 1184.17L468.777 1250.84L237.969 1338.93ZM237.969 1443.73L237.969 1339.77L468.777 1251.68L468.777 1335.46L237.969 1443.73ZM470.619 328.924L470.619 245.306L655.234 331.91L655.234 399.382L470.619 328.924ZM470.619 396.315L470.619 329.764L655.234 400.222L655.234 454.552L470.619 396.315ZM470.619 452.709L470.619 397.056L655.234 455.293L655.234 501.233L470.619 452.709ZM470.619 501.693L470.619 453.376L655.234 501.9L655.234 542.195L470.619 501.693ZM470.619 545.495L470.619 502.305L655.234 542.806L655.234 579.155L470.619 545.495ZM470.619 585.577L470.619 546.064L655.234 579.725L655.234 613.245L470.619 585.577ZM470.619 622.951L470.619 586.113L655.234 613.781L655.234 645.244L470.619 622.951ZM470.619 658.347L470.619 623.461L655.234 645.755L655.234 675.717L470.619 658.347ZM470.619 692.319L470.619 658.838L655.234 676.207L655.234 705.089L470.619 692.319ZM470.619 725.302L470.619 692.795L655.234 705.566L655.234 733.698L470.619 725.302ZM470.619 757.663L470.619 725.769L655.234 734.165L655.234 761.826L470.619 757.663ZM470.619 789.72L470.619 758.124L655.234 762.288L655.234 789.72L470.619 789.72ZM470.619 821.777L470.619 790.18L655.234 790.18L655.234 817.613L470.619 821.777ZM470.619 854.131L470.619 822.238L655.234 818.074L655.234 845.735L470.619 854.131ZM470.619 887.105L470.619 854.599L655.234 846.203L655.234 874.335L470.619 887.105ZM470.619 921.063L470.619 887.582L655.234 874.812L655.234 903.693L470.619 921.063ZM470.619 956.439L470.619 921.554L655.234 904.184L655.234 934.146L470.619 956.439ZM470.619 993.788L470.619 956.95L655.234 934.657L655.234 966.12L470.619 993.788ZM470.619 1033.84L470.619 994.324L655.234 966.655L655.234 1000.18L470.619 1033.84ZM470.619 1077.6L470.619 1034.41L655.234 1000.75L655.234 1037.09L470.619 1077.6ZM470.619 1126.52L470.619 1078.21L655.234 1037.71L655.234 1078L470.619 1126.52ZM470.619 1182.84L470.619 1127.19L655.234 1078.67L655.234 1124.61L470.619 1182.84ZM470.619 1250.14L470.619 1183.59L655.234 1125.35L655.234 1179.68L470.619 1250.14ZM470.619 1334.59L470.619 1250.98L655.234 1180.52L655.234 1247.99L470.619 1334.59ZM657.076 400.085L657.076 332.774L803.453 401.44L803.453 455.949L657.076 400.085ZM657.076 455.133L657.076 400.925L803.453 456.79L803.453 501.308L657.076 455.133ZM657.076 501.718L657.076 455.874L803.453 502.049L803.453 540.191L657.076 501.718ZM657.076 542.598L657.076 502.384L803.453 540.858L803.453 574.711L657.076 542.598ZM657.076 579.492L657.076 543.211L803.453 575.323L803.453 606.18L657.076 579.492ZM657.076 613.521L657.076 580.06L803.453 606.749L803.453 635.459L657.076 613.521ZM657.076 645.467L657.076 614.057L803.453 635.995L803.453 663.142L657.076 645.467ZM657.076 675.89L657.076 645.977L803.453 663.653L803.453 689.662L657.076 675.89ZM657.076 705.216L657.076 676.381L803.453 690.153L803.453 715.341L657.076 705.216ZM657.076 733.782L657.076 705.693L803.453 715.818L803.453 740.439L657.076 733.782ZM657.076 761.868L657.076 734.249L803.453 740.906L803.453 765.169L657.076 761.868ZM657.076 789.72L657.076 762.329L803.453 765.631L803.453 789.72L657.076 789.72ZM657.076 817.571L657.076 790.18L803.453 790.18L803.453 814.27L657.076 817.571ZM657.076 845.651L657.076 818.033L803.453 814.732L803.453 838.994L657.076 845.651ZM657.076 874.208L657.076 846.119L803.453 839.462L803.453 864.083L657.076 874.208ZM657.076 903.52L657.076 874.685L803.453 864.56L803.453 889.748L657.076 903.52ZM657.076 933.924L657.076 904.011L803.453 890.239L803.453 916.248L657.076 933.924ZM657.076 965.844L657.076 934.434L803.453 916.758L803.453 943.906L657.076 965.844ZM657.076 999.84L657.076 966.38L803.453 944.442L803.453 973.151L657.076 999.84ZM657.076 1036.69L657.076 1000.41L803.453 973.72L803.453 1004.58L657.076 1036.69ZM657.076 1077.52L657.076 1037.3L803.453 1005.19L803.453 1039.04L657.076 1077.52ZM657.076 1124.03L657.076 1078.18L803.453 1039.71L803.453 1077.85L657.076 1124.03ZM657.076 1178.98L657.076 1124.77L803.453 1078.59L803.453 1123.11L657.076 1178.98ZM657.076 1247.13L657.076 1179.82L803.453 1123.95L803.453 1178.46L657.076 1247.13ZM805.295 456.652L805.295 402.304L920.239 456.224L920.239 500.52L805.295 456.652ZM805.295 501.889L805.295 457.493L920.239 501.361L920.239 538.148L805.295 501.889ZM805.295 540.675L805.295 502.63L920.239 538.889L920.239 570.887L805.295 540.675ZM805.295 575.116L805.295 541.343L920.239 571.554L920.239 600.332L805.295 575.116ZM805.295 606.516L805.295 575.728L920.239 600.944L920.239 627.474L805.295 606.516ZM805.295 635.735L805.295 607.085L920.239 628.042L920.239 652.961L805.295 635.735ZM805.295 663.365L805.295 636.271L920.239 653.498L920.239 677.245L805.295 663.365ZM805.295 689.835L805.295 663.876L920.239 677.756L920.239 700.649L805.295 689.835ZM805.295 715.468L805.295 690.326L920.239 701.14L920.239 723.42L805.295 715.468ZM805.295 740.523L805.295 715.946L920.239 723.897L920.239 745.75L805.295 740.523ZM805.295 765.211L805.295 740.99L920.239 746.217L920.239 767.803L805.295 765.211ZM805.295 789.72L805.295 765.672L920.239 768.264L920.239 789.72L805.295 789.72ZM805.295 814.229L805.295 790.18L920.239 790.18L920.239 811.636L805.295 814.229ZM805.295 838.911L805.295 814.69L920.239 812.098L920.239 833.683L805.295 838.911ZM805.295 863.955L805.295 839.378L920.239 834.151L920.239 856.004L805.295 863.955ZM805.295 889.575L805.295 864.432L920.239 856.481L920.239 878.761L805.295 889.575ZM805.295 916.025L805.295 890.066L920.239 879.252L920.239 902.145L805.295 916.025ZM805.295 943.63L805.295 916.536L920.239 902.655L920.239 926.403L805.295 943.63ZM805.295 972.815L805.295 944.166L920.239 926.939L920.239 951.858L805.295 972.815ZM805.295 1004.17L805.295 973.384L920.239 952.427L920.239 978.956L805.295 1004.17ZM805.295 1038.56L805.295 1004.78L920.239 979.568L920.239 1008.35L805.295 1038.56ZM805.295 1077.27L805.295 1039.23L920.239 1009.01L920.239 1041.01L805.295 1077.27ZM805.295 1122.41L805.295 1078.01L920.239 1041.75L920.239 1078.54L805.295 1122.41ZM805.295 1177.6L805.295 1123.25L920.239 1079.38L920.239 1123.68L805.295 1177.6ZM922.081 501.223L922.081 457.089L1011.39 498.983L1011.39 535.307L922.081 501.223ZM922.081 538.729L922.081 502.064L1011.39 536.148L1011.39 566.901L922.081 538.729ZM922.081 571.371L922.081 539.47L1011.39 567.642L1011.39 594.845L922.081 571.371ZM922.081 600.736L922.081 572.038L1011.39 595.512L1011.39 620.329L922.081 600.736ZM922.081 627.81L922.081 601.348L1011.39 620.941L1011.39 644.093L922.081 627.81ZM922.081 653.238L922.081 628.379L1011.39 644.662L1011.39 666.622L922.081 653.238ZM922.081 677.468L922.081 653.774L1011.39 667.158L1011.39 688.252L922.081 677.468ZM922.081 700.823L922.081 677.978L1011.39 688.763L1011.39 709.225L922.081 700.823ZM922.081 723.547L922.081 701.314L1011.39 709.716L1011.39 729.724L922.081 723.547ZM922.081 745.834L922.081 724.024L1011.39 730.202L1011.39 749.896L922.081 745.834ZM922.081 767.845L922.081 746.301L1011.39 750.362L1011.39 769.859L922.081 767.845ZM922.081 789.72L922.081 768.306L1011.39 770.32L1011.39 789.72L922.081 789.72ZM922.081 811.595L922.081 790.18L1011.39 790.18L1011.39 809.581L922.081 811.595ZM922.081 833.599L922.081 812.056L1011.39 810.042L1011.39 829.538L922.081 833.599ZM922.081 855.877L922.081 834.067L1011.39 830.005L1011.39 849.699L922.081 855.877ZM922.081 878.587L922.081 856.354L1011.39 850.176L1011.39 870.185L922.081 878.587ZM922.081 901.923L922.081 879.078L1011.39 870.676L1011.39 891.138L922.081 901.923ZM922.081 926.127L922.081 902.433L1011.39 891.649L1011.39 912.743L922.081 926.127ZM922.081 951.522L922.081 926.663L1011.39 913.278L1011.39 935.238L922.081 951.522ZM922.081 978.552L922.081 952.091L1011.39 935.808L1011.39 958.96L922.081 978.552ZM922.081 1007.86L922.081 979.164L1011.39 959.572L1011.39 984.389L922.081 1007.86ZM922.081 1040.43L922.081 1008.53L1011.39 985.056L1011.39 1012.26L922.081 1040.43ZM922.081 1077.84L922.081 1041.17L1011.39 1013L1011.39 1043.75L922.081 1077.84ZM922.081 1122.81L922.081 1078.68L1011.39 1044.59L1011.39 1080.92L922.081 1122.81ZM1013.23 536.01L1013.23 499.847L1081.8 532.011L1081.8 562.178L1013.23 536.01ZM1013.23 567.482L1013.23 536.851L1081.8 563.019L1081.8 589.112L1013.23 567.482ZM1013.23 595.329L1013.23 568.223L1081.8 589.853L1081.8 613.351L1013.23 595.329ZM1013.23 620.733L1013.23 595.996L1081.8 614.018L1081.8 635.776L1013.23 620.733ZM1013.23 644.429L1013.23 621.345L1081.8 636.387L1081.8 656.931L1013.23 644.429ZM1013.23 666.898L1013.23 644.998L1081.8 657.5L1081.8 677.174L1013.23 666.898ZM1013.23 688.475L1013.23 667.434L1081.8 677.71L1081.8 696.754L1013.23 688.475ZM1013.23 709.398L1013.23 688.985L1081.8 697.265L1081.8 715.849L1013.23 709.398ZM1013.23 729.852L1013.23 709.889L1081.8 716.34L1081.8 734.595L1013.23 729.852ZM1013.23 749.979L1013.23 730.329L1081.8 735.072L1081.8 753.098L1013.23 749.979ZM1013.23 769.901L1013.23 750.446L1081.8 753.565L1081.8 771.447L1013.23 769.901ZM1013.23 789.72L1013.23 770.362L1081.8 771.908L1081.8 789.72L1013.23 789.72ZM1013.23 809.539L1013.23 790.18L1081.8 790.18L1081.8 807.993L1013.23 809.539ZM1013.23 829.454L1013.23 810L1081.8 808.454L1081.8 826.336L1013.23 829.454ZM1013.23 849.572L1013.23 829.922L1081.8 826.803L1081.8 844.829L1013.23 849.572ZM1013.23 870.012L1013.23 850.049L1081.8 845.306L1081.8 863.56L1013.23 870.012ZM1013.23 890.916L1013.23 870.502L1081.8 864.051L1081.8 882.636L1013.23 890.916ZM1013.23 912.467L1013.23 891.426L1081.8 883.147L1081.8 902.191L1013.23 912.467ZM1013.23 934.903L1013.23 913.002L1081.8 902.726L1081.8 922.401L1013.23 934.903ZM1013.23 958.556L1013.23 935.472L1081.8 922.97L1081.8 943.514L1013.23 958.556ZM1013.23 983.905L1013.23 959.167L1081.8 944.125L1081.8 965.882L1013.23 983.905ZM1013.23 1011.68L1013.23 984.572L1081.8 966.55L1081.8 990.048L1013.23 1011.68ZM1013.23 1043.05L1013.23 1012.42L1081.8 990.789L1081.8 1016.88L1013.23 1043.05ZM1013.23 1080.05L1013.23 1043.89L1081.8 1017.72L1081.8 1047.89L1013.23 1080.05ZM1083.64 562.882L1083.64 532.876L1135.58 557.24L1135.58 582.704L1083.64 562.882ZM1083.64 589.693L1083.64 563.723L1135.58 583.544L1135.58 606.077L1083.64 589.693ZM1083.64 613.835L1083.64 590.434L1135.58 606.818L1135.58 627.487L1083.64 613.835ZM1083.64 636.179L1083.64 614.503L1135.58 628.154L1135.58 647.574L1083.64 636.179ZM1083.64 657.267L1083.64 636.792L1135.58 648.186L1135.58 666.736L1083.64 657.267ZM1083.64 677.45L1083.64 657.835L1135.58 667.305L1135.58 685.234L1083.64 677.45ZM1083.64 696.977L1083.64 677.986L1135.58 685.771L1135.58 703.248L1083.64 696.977ZM1083.64 716.023L1083.64 697.488L1135.58 703.759L1135.58 720.909L1083.64 716.023ZM1083.64 734.722L1083.64 716.514L1135.58 721.4L1135.58 738.315L1083.64 734.722ZM1083.64 753.181L1083.64 735.199L1135.58 738.792L1135.58 755.544L1083.64 753.181ZM1083.64 771.488L1083.64 753.649L1135.58 756.01L1135.58 772.66L1083.64 771.488ZM1083.64 789.72L1083.64 771.95L1135.58 773.121L1135.58 789.72L1083.64 789.72ZM1083.64 807.951L1083.64 790.18L1135.58 790.18L1135.58 806.78L1083.64 807.951ZM1083.64 826.252L1083.64 808.413L1135.58 807.241L1135.58 823.89L1083.64 826.252ZM1083.64 844.702L1083.64 826.719L1135.58 824.357L1135.58 841.109L1083.64 844.702ZM1083.64 863.387L1083.64 845.179L1135.58 841.586L1135.58 858.5L1083.64 863.387ZM1083.64 882.413L1083.64 863.878L1135.58 858.992L1135.58 876.142L1083.64 882.413ZM1083.64 901.915L1083.64 882.924L1135.58 876.652L1135.58 894.13L1083.64 901.915ZM1083.64 922.065L1083.64 902.45L1135.58 894.667L1135.58 912.595L1083.64 922.065ZM1083.64 943.109L1083.64 922.634L1135.58 913.164L1135.58 931.715L1083.64 943.109ZM1083.64 965.398L1083.64 943.721L1135.58 932.327L1135.58 951.747L1083.64 965.398ZM1083.64 989.467L1083.64 966.065L1135.58 952.414L1135.58 973.083L1083.64 989.467ZM1083.64 1016.18L1083.64 990.208L1135.58 973.824L1135.58 996.357L1083.64 1016.18ZM1083.64 1047.03L1083.64 1017.02L1135.58 997.197L1135.58 1022.66L1083.64 1047.03ZM1137.42 583.406L1137.42 558.104L1176.16 576.277L1176.16 598.191L1137.42 583.406ZM1137.42 606.658L1137.42 584.247L1176.16 599.032L1176.16 618.878L1137.42 606.658ZM1137.42 627.971L1137.42 607.399L1176.16 619.619L1176.16 638.153L1137.42 627.971ZM1137.42 647.978L1137.42 628.638L1176.16 638.82L1176.16 656.477L1137.42 647.978ZM1137.42 667.072L1137.42 648.59L1176.16 657.089L1176.16 674.136L1137.42 667.072ZM1137.42 685.511L1137.42 667.641L1176.16 674.705L1176.16 691.316L1137.42 685.511ZM1137.42 703.471L1137.42 686.047L1176.16 691.852L1176.16 708.149L1137.42 703.471ZM1137.42 721.083L1137.42 703.982L1176.16 708.66L1176.16 724.727L1137.42 721.083ZM1137.42 738.442L1137.42 721.574L1176.16 725.219L1176.16 741.122L1137.42 738.442ZM1137.42 755.627L1137.42 738.919L1176.16 741.599L1176.16 757.389L1137.42 755.627ZM1137.42 772.701L1137.42 756.094L1176.16 757.856L1176.16 773.575L1137.42 772.701ZM1137.42 789.72L1137.42 773.162L1176.16 774.037L1176.16 789.72L1137.42 789.72ZM1137.42 806.738L1137.42 790.18L1176.16 790.18L1176.16 805.864L1137.42 806.738ZM1137.42 823.806L1137.42 807.2L1176.16 806.326L1176.16 822.044L1137.42 823.806ZM1137.42 840.982L1137.42 824.274L1176.16 822.512L1176.16 838.302L1137.42 840.982ZM1137.42 858.327L1137.42 841.459L1176.16 838.779L1176.16 854.682L1137.42 858.327ZM1137.42 875.919L1137.42 858.818L1176.16 855.174L1176.16 871.241L1137.42 875.919ZM1137.42 893.854L1137.42 876.43L1176.16 871.752L1176.16 888.049L1137.42 893.854ZM1137.42 912.259L1137.42 894.39L1176.16 888.584L1176.16 905.196L1137.42 912.259ZM1137.42 931.311L1137.42 912.828L1176.16 905.765L1176.16 922.812L1137.42 931.311ZM1137.42 951.263L1137.42 931.922L1176.16 923.424L1176.16 941.081L1137.42 951.263ZM1137.42 972.502L1137.42 951.93L1176.16 941.748L1176.16 960.282L1137.42 972.502ZM1137.42 995.653L1137.42 973.243L1176.16 961.023L1176.16 980.868L1137.42 995.653ZM1137.42 1021.8L1137.42 996.494L1176.16 981.709L1176.16 1003.62L1137.42 1021.8ZM1178 598.895L1178 577.141L1206.37 590.45L1206.37 609.723L1178 598.895ZM1178 619.459L1178 599.736L1206.37 610.563L1206.37 628.409L1178 619.459ZM1178 638.638L1178 620.2L1206.37 629.15L1206.37 646.095L1178 638.638ZM1178 656.881L1178 639.304L1206.37 646.762L1206.37 663.105L1178 656.881ZM1178 674.472L1178 657.493L1206.37 663.717L1206.37 679.644L1178 674.472ZM1178 691.592L1178 675.04L1206.37 680.213L1206.37 695.845L1178 691.592ZM1178 708.372L1178 692.128L1206.37 696.38L1206.37 711.798L1178 708.372ZM1178 724.901L1178 708.882L1206.37 712.308L1206.37 727.57L1178 724.901ZM1178 741.249L1178 725.392L1206.37 728.061L1206.37 743.212L1178 741.249ZM1178 757.473L1178 741.726L1206.37 743.689L1206.37 758.763L1178 757.473ZM1178 773.617L1178 757.94L1206.37 759.23L1206.37 774.256L1178 773.617ZM1178 789.72L1178 774.078L1206.37 774.718L1206.37 789.72L1178 789.72ZM1178 805.823L1178 790.18L1206.37 790.18L1206.37 805.183L1178 805.823ZM1178 821.961L1178 806.284L1206.37 805.644L1206.37 820.67L1178 821.961ZM1178 838.174L1178 822.428L1206.37 821.138L1206.37 836.212L1178 838.174ZM1178 854.509L1178 838.651L1206.37 836.689L1206.37 851.84L1178 854.509ZM1178 871.018L1178 855L1206.37 852.331L1206.37 867.592L1178 871.018ZM1178 887.773L1178 871.529L1206.37 868.103L1206.37 883.52L1178 887.773ZM1178 904.86L1178 888.308L1206.37 884.056L1206.37 899.687L1178 904.86ZM1178 922.408L1178 905.429L1206.37 900.257L1206.37 916.184L1178 922.408ZM1178 940.596L1178 923.019L1206.37 916.795L1206.37 933.139L1178 940.596ZM1178 959.7L1178 941.263L1206.37 933.806L1206.37 950.75L1178 959.7ZM1178 980.165L1178 960.441L1206.37 951.492L1206.37 969.338L1178 980.165ZM1178 1002.76L1178 981.006L1206.37 970.178L1206.37 989.451L1178 1002.76ZM1208.21 610.425L1208.21 591.315L1228.54 600.849L1228.54 618.182L1208.21 610.425ZM1208.21 628.99L1208.21 611.266L1228.54 619.023L1228.54 635.401L1208.21 628.99ZM1208.21 646.579L1208.21 629.732L1228.54 636.143L1228.54 651.921L1208.21 646.579ZM1208.21 663.509L1208.21 647.246L1228.54 652.588L1228.54 667.968L1208.21 663.509ZM1208.21 679.98L1208.21 664.122L1228.54 668.58L1228.54 683.686L1208.21 679.98ZM1208.21 696.121L1208.21 680.549L1228.54 684.255L1228.54 699.167L1208.21 696.121ZM1208.21 712.02L1208.21 696.656L1228.54 699.703L1228.54 714.475L1208.21 712.02ZM1208.21 727.743L1208.21 712.531L1228.54 714.985L1228.54 729.655L1208.21 727.743ZM1208.21 743.339L1208.21 728.235L1228.54 730.147L1228.54 744.745L1208.21 743.339ZM1208.21 758.847L1208.21 743.816L1228.54 745.222L1228.54 759.771L1208.21 758.847ZM1208.21 774.298L1208.21 759.314L1228.54 760.238L1228.54 774.756L1208.21 774.298ZM1208.21 789.72L1208.21 774.76L1228.54 775.218L1228.54 789.72L1208.21 789.72ZM1208.21 805.141L1208.21 790.18L1228.54 790.18L1228.54 804.683L1208.21 805.141ZM1208.21 820.586L1208.21 805.603L1228.54 805.145L1228.54 819.662L1208.21 820.586ZM1208.21 836.085L1208.21 821.054L1228.54 820.13L1228.54 834.679L1208.21 836.085ZM1208.21 851.666L1208.21 836.562L1228.54 835.156L1228.54 849.754L1208.21 851.666ZM1208.21 867.37L1208.21 852.158L1228.54 850.245L1228.54 864.916L1208.21 867.37ZM1208.21 883.244L1208.21 867.881L1228.54 865.426L1228.54 880.198L1208.21 883.244ZM1208.21 899.351L1208.21 883.78L1228.54 880.734L1228.54 895.645L1208.21 899.351ZM1208.21 915.779L1208.21 899.92L1228.54 896.215L1228.54 911.321L1208.21 915.779ZM1208.21 932.655L1208.21 916.391L1228.54 911.932L1228.54 927.313L1208.21 932.655ZM1208.21 950.169L1208.21 933.322L1228.54 927.98L1228.54 943.758L1208.21 950.169ZM1208.21 968.634L1208.21 950.911L1228.54 944.5L1228.54 960.878L1208.21 968.634ZM1208.21 988.586L1208.21 969.475L1228.54 961.718L1228.54 979.052L1208.21 988.586ZM1230.38 618.886L1230.38 601.713L1244.54 608.354L1244.54 624.288L1230.38 618.886ZM1230.38 635.983L1230.38 619.726L1244.54 625.129L1244.54 640.448L1230.38 635.983ZM1230.38 652.405L1230.38 636.724L1244.54 641.19L1244.54 656.126L1230.38 652.405ZM1230.38 668.372L1230.38 653.072L1244.54 656.793L1244.54 671.478L1230.38 668.372ZM1230.38 684.022L1230.38 668.985L1244.54 672.09L1244.54 686.603L1230.38 684.022ZM1230.38 699.443L1230.38 684.591L1244.54 687.172L1244.54 701.564L1230.38 699.443ZM1230.38 714.697L1230.38 699.979L1244.54 702.101L1244.54 716.406L1230.38 714.697ZM1230.38 729.829L1230.38 715.207L1244.54 716.917L1244.54 731.161L1230.38 729.829ZM1230.38 744.873L1230.38 730.32L1244.54 731.652L1244.54 745.852L1230.38 744.873ZM1230.38 759.855L1230.38 745.35L1244.54 746.329L1244.54 760.499L1230.38 759.855ZM1230.38 774.798L1230.38 760.322L1244.54 760.966L1244.54 775.117L1230.38 774.798ZM1230.38 789.72L1230.38 775.259L1244.54 775.578L1244.54 789.72L1230.38 789.72ZM1230.38 804.641L1230.38 790.18L1244.54 790.18L1244.54 804.322L1230.38 804.641ZM1230.38 819.579L1230.38 805.103L1244.54 804.784L1244.54 818.935L1230.38 819.579ZM1230.38 834.551L1230.38 820.046L1244.54 819.402L1244.54 833.572L1230.38 834.551ZM1230.38 849.581L1230.38 835.028L1244.54 834.049L1244.54 848.249L1230.38 849.581ZM1230.38 864.694L1230.38 850.072L1244.54 848.74L1244.54 862.984L1230.38 864.694ZM1230.38 879.922L1230.38 865.204L1244.54 863.495L1244.54 877.8L1230.38 879.922ZM1230.38 895.31L1230.38 880.458L1244.54 878.337L1244.54 892.728L1230.38 895.31ZM1230.38 910.916L1230.38 895.879L1244.54 893.297L1244.54 907.811L1230.38 910.916ZM1230.38 926.829L1230.38 911.528L1244.54 908.422L1244.54 923.108L1230.38 926.829ZM1230.38 943.177L1230.38 927.496L1244.54 923.774L1244.54 938.711L1230.38 943.177ZM1230.38 960.174L1230.38 943.918L1244.54 939.453L1244.54 954.772L1230.38 960.174ZM1230.38 978.188L1230.38 961.015L1244.54 955.612L1244.54 971.547L1230.38 978.188ZM1246.38 624.992L1246.38 609.218L1255.88 613.675L1255.88 628.617L1246.38 624.992ZM1246.38 641.03L1246.38 625.832L1255.88 629.458L1255.88 644.027L1246.38 641.03ZM1246.38 656.611L1246.38 641.771L1255.88 644.768L1255.88 659.108L1246.38 656.611ZM1246.38 671.883L1246.38 657.278L1255.88 659.775L1255.88 673.967L1246.38 671.883ZM1246.38 686.939L1246.38 672.494L1255.88 674.579L1255.88 688.672L1246.38 686.939ZM1246.38 701.841L1246.38 687.508L1255.88 689.24L1255.88 703.265L1246.38 701.841ZM1246.38 716.629L1246.38 702.377L1255.88 703.8L1255.88 717.776L1246.38 716.629ZM1246.38 731.334L1246.38 717.14L1255.88 718.287L1255.88 732.228L1246.38 731.334ZM1246.38 745.98L1246.38 731.825L1255.88 732.719L1255.88 746.637L1246.38 745.98ZM1246.38 760.583L1246.38 746.457L1255.88 747.114L1255.88 761.015L1246.38 760.583ZM1246.38 775.158L1246.38 761.05L1255.88 761.482L1255.88 775.373L1246.38 775.158ZM1246.38 789.72L1246.38 775.62L1255.88 775.834L1255.88 789.72L1246.38 789.72ZM1246.38 804.281L1246.38 790.18L1255.88 790.18L1255.88 804.067L1246.38 804.281ZM1246.38 818.851L1246.38 804.742L1255.88 804.528L1255.88 818.419L1246.38 818.851ZM1246.38 833.444L1246.38 819.318L1255.88 818.886L1255.88 832.787L1246.38 833.444ZM1246.38 848.075L1246.38 833.921L1255.88 833.264L1255.88 847.181L1246.38 848.075ZM1246.38 862.761L1246.38 848.567L1255.88 847.673L1255.88 861.614L1246.38 862.761ZM1246.38 877.524L1246.38 863.272L1255.88 862.125L1255.88 876.1L1246.38 877.524ZM1246.38 892.392L1246.38 878.06L1255.88 876.636L1255.88 890.66L1246.38 892.392ZM1246.38 907.407L1246.38 892.962L1255.88 891.229L1255.88 905.322L1246.38 907.407ZM1246.38 922.623L1246.38 908.018L1255.88 905.934L1255.88 920.126L1246.38 922.623ZM1246.38 938.13L1246.38 923.29L1255.88 920.793L1255.88 935.133L1246.38 938.13ZM1246.38 954.068L1246.38 938.871L1255.88 935.874L1255.88 950.443L1246.38 954.068ZM1246.38 970.682L1246.38 954.909L1255.88 951.283L1255.88 966.226L1246.38 970.682ZM1257.72 629.32L1257.72 614.539L1263.76 617.372L1263.76 631.625L1257.72 629.32ZM1257.72 644.608L1257.72 630.161L1263.76 632.466L1263.76 646.513L1257.72 644.608ZM1257.72 659.592L1257.72 645.349L1263.76 647.254L1263.76 661.179L1257.72 659.592ZM1257.72 674.371L1257.72 660.259L1263.76 661.846L1263.76 675.695L1257.72 674.371ZM1257.72 689.007L1257.72 674.983L1263.76 676.307L1263.76 690.108L1257.72 689.007ZM1257.72 703.541L1257.72 689.576L1263.76 690.677L1263.76 704.446L1257.72 703.541ZM1257.72 717.999L1257.72 704.076L1263.76 704.982L1263.76 718.728L1257.72 717.999ZM1257.72 732.401L1257.72 718.509L1263.76 719.238L1263.76 732.969L1257.72 732.401ZM1257.72 746.764L1257.72 732.893L1263.76 733.461L1263.76 747.182L1257.72 746.764ZM1257.72 761.099L1257.72 747.241L1263.76 747.659L1263.76 761.373L1257.72 761.099ZM1257.72 775.415L1257.72 761.565L1263.76 761.84L1263.76 775.551L1257.72 775.415ZM1257.72 789.72L1257.72 775.876L1263.76 776.012L1263.76 789.72L1257.72 789.72ZM1257.72 804.025L1257.72 790.18L1263.76 790.18L1263.76 803.889L1257.72 804.025ZM1257.72 818.335L1257.72 804.486L1263.76 804.35L1263.76 818.061L1257.72 818.335ZM1257.72 832.66L1257.72 818.802L1263.76 818.528L1263.76 832.242L1257.72 832.66ZM1257.72 847.008L1257.72 833.137L1263.76 832.719L1263.76 846.44L1257.72 847.008ZM1257.72 861.392L1257.72 847.5L1263.76 846.932L1263.76 860.662L1257.72 861.392ZM1257.72 875.824L1257.72 861.902L1263.76 861.173L1263.76 874.919L1257.72 875.824ZM1257.72 890.324L1257.72 876.36L1263.76 875.455L1263.76 889.223L1257.72 890.324ZM1257.72 904.918L1257.72 890.894L1263.76 889.792L1263.76 903.593L1257.72 904.918ZM1257.72 919.642L1257.72 905.53L1263.76 904.205L1263.76 918.055L1257.72 919.642ZM1257.72 934.552L1257.72 920.309L1263.76 918.722L1263.76 932.647L1257.72 934.552ZM1257.72 949.739L1257.72 935.293L1263.76 933.388L1263.76 947.435L1257.72 949.739ZM1257.72 965.361L1257.72 950.58L1263.76 948.276L1263.76 962.529L1257.72 965.361ZM1265.6 632.328L1265.6 618.236L1269.11 619.882L1269.11 633.667L1265.6 632.328ZM1265.6 647.094L1265.6 633.169L1269.11 634.508L1269.11 648.2L1265.6 647.094ZM1265.6 661.663L1265.6 647.835L1269.11 648.942L1269.11 662.585L1265.6 661.663ZM1265.6 676.1L1265.6 662.33L1269.11 663.252L1269.11 676.869L1265.6 676.1ZM1265.6 690.444L1265.6 676.711L1269.11 677.481L1269.11 691.084L1265.6 690.444ZM1265.6 704.722L1265.6 691.013L1269.11 691.653L1269.11 705.248L1265.6 704.722ZM1265.6 718.95L1265.6 705.257L1269.11 705.783L1269.11 719.374L1265.6 718.95ZM1265.6 733.143L1265.6 719.461L1269.11 719.885L1269.11 733.473L1265.6 733.143ZM1265.6 747.309L1265.6 733.634L1269.11 733.964L1269.11 747.552L1265.6 747.309ZM1265.6 761.457L1265.6 747.786L1269.11 748.029L1269.11 761.616L1265.6 761.457ZM1265.6 775.592L1265.6 761.924L1269.11 762.083L1269.11 775.671L1265.6 775.592ZM1265.6 789.72L1265.6 776.054L1269.11 776.133L1269.11 789.72L1265.6 789.72ZM1265.6 803.847L1265.6 790.18L1269.11 790.18L1269.11 803.768L1265.6 803.847ZM1265.6 817.977L1265.6 804.309L1269.11 804.23L1269.11 817.817L1265.6 817.977ZM1265.6 832.115L1265.6 818.444L1269.11 818.284L1269.11 831.872L1265.6 832.115ZM1265.6 846.267L1265.6 832.592L1269.11 832.349L1269.11 845.937L1265.6 846.267ZM1265.6 860.44L1265.6 846.758L1269.11 846.428L1269.11 860.016L1265.6 860.44ZM1265.6 874.643L1265.6 860.951L1269.11 860.527L1269.11 874.117L1265.6 874.643ZM1265.6 888.887L1265.6 875.179L1269.11 874.653L1269.11 888.248L1265.6 888.887ZM1265.6 903.19L1265.6 889.457L1269.11 888.817L1269.11 902.419L1265.6 903.19ZM1265.6 917.571L1265.6 903.801L1269.11 903.031L1269.11 916.648L1265.6 917.571ZM1265.6 932.066L1265.6 918.238L1269.11 917.316L1269.11 930.959L1265.6 932.066ZM1265.6 946.732L1265.6 932.807L1269.11 931.701L1269.11 945.393L1265.6 946.732ZM1265.6 961.665L1265.6 947.572L1269.11 946.233L1269.11 960.019L1265.6 961.665ZM1270.95 634.37L1270.95 620.746L1272.65 621.543L1272.65 635.018L1270.95 634.37ZM1270.95 648.781L1270.95 635.211L1272.65 635.859L1272.65 649.317L1270.95 648.781ZM1270.95 663.069L1270.95 649.523L1272.65 650.059L1272.65 663.516L1270.95 663.069ZM1270.95 677.274L1270.95 663.737L1272.65 664.183L1272.65 677.646L1270.95 677.274ZM1270.95 691.42L1270.95 677.885L1272.65 678.258L1272.65 691.729L1270.95 691.42ZM1270.95 705.524L1270.95 691.989L1272.65 692.298L1272.65 705.778L1270.95 705.524ZM1270.95 719.596L1270.95 706.059L1272.65 706.314L1272.65 719.802L1270.95 719.596ZM1270.95 733.646L1270.95 720.107L1272.65 720.312L1272.65 733.806L1270.95 733.646ZM1270.95 747.679L1270.95 734.137L1272.65 734.297L1272.65 747.797L1270.95 747.679ZM1270.95 761.7L1270.95 748.156L1272.65 748.274L1272.65 761.777L1270.95 761.7ZM1270.95 775.713L1270.95 762.167L1272.65 762.244L1272.65 775.751L1270.95 775.713ZM1270.95 789.72L1270.95 776.174L1272.65 776.213L1272.65 789.72L1270.95 789.72ZM1270.95 803.727L1270.95 790.18L1272.65 790.18L1272.65 803.688L1270.95 803.727ZM1270.95 817.733L1270.95 804.188L1272.65 804.15L1272.65 817.656L1270.95 817.733ZM1270.95 831.744L1270.95 818.201L1272.65 818.123L1272.65 831.627L1270.95 831.744ZM1270.95 845.763L1270.95 832.221L1272.65 832.104L1272.65 845.604L1270.95 845.763ZM1270.95 859.794L1270.95 846.255L1272.65 846.095L1272.65 859.589L1270.95 859.794ZM1270.95 873.841L1270.95 860.304L1272.65 860.099L1272.65 873.587L1270.95 873.841ZM1270.95 887.912L1270.95 874.377L1272.65 874.123L1272.65 887.602L1270.95 887.912ZM1270.95 902.016L1270.95 888.481L1272.65 888.172L1272.65 901.643L1270.95 902.016ZM1270.95 916.164L1270.95 902.627L1272.65 902.254L1272.65 915.718L1270.95 916.164ZM1270.95 930.378L1270.95 916.832L1272.65 916.385L1272.65 929.842L1270.95 930.378ZM1270.95 944.69L1270.95 931.119L1272.65 930.584L1272.65 944.042L1270.95 944.69ZM1270.95 959.155L1270.95 945.53L1272.65 944.882L1272.65 958.358L1270.95 959.155ZM1274.49 635.721L1274.49 622.407L1274.93 622.61L1274.93 635.887L1274.49 635.721ZM1274.49 649.898L1274.49 636.562L1274.93 636.727L1274.93 650.035L1274.49 649.898ZM1274.49 664L1274.49 650.64L1274.93 650.776L1274.93 664.114L1274.49 664ZM1274.49 678.05L1274.49 664.667L1274.93 664.781L1274.93 678.146L1274.49 678.05ZM1274.49 692.065L1274.49 678.662L1274.93 678.757L1274.93 692.144L1274.49 692.065ZM1274.49 706.054L1274.49 692.634L1274.93 692.713L1274.93 706.119L1274.49 706.054ZM1274.49 720.024L1274.49 706.59L1274.93 706.655L1274.93 720.076L1274.49 720.024ZM1274.49 733.979L1274.49 720.534L1274.93 720.587L1274.93 734.02L1274.49 733.979ZM1274.49 747.924L1274.49 734.47L1274.93 734.511L1274.93 747.954L1274.49 747.924ZM1274.49 761.861L1274.49 748.401L1274.93 748.431L1274.93 761.881L1274.49 761.861ZM1274.49 775.792L1274.49 762.328L1274.93 762.348L1274.93 775.802L1274.49 775.792ZM1274.49 789.72L1274.49 776.254L1274.93 776.264L1274.93 789.72L1274.49 789.72ZM1274.49 803.647L1274.49 790.18L1274.93 790.18L1274.93 803.637L1274.49 803.647ZM1274.49 817.572L1274.49 804.108L1274.93 804.099L1274.93 817.553L1274.49 817.572ZM1274.49 831.5L1274.49 818.039L1274.93 818.02L1274.93 831.47L1274.49 831.5ZM1274.49 845.43L1274.49 831.977L1274.93 831.947L1274.93 845.39L1274.49 845.43ZM1274.49 859.367L1274.49 845.921L1274.93 845.881L1274.93 859.314L1274.49 859.367ZM1274.49 873.311L1274.49 859.877L1274.93 859.825L1274.93 873.246L1274.49 873.311ZM1274.49 887.266L1274.49 873.847L1274.93 873.782L1274.93 887.187L1274.49 887.266ZM1274.49 901.239L1274.49 887.835L1274.93 887.756L1274.93 901.144L1274.49 901.239ZM1274.49 915.234L1274.49 901.85L1274.93 901.755L1274.93 915.12L1274.49 915.234ZM1274.49 929.261L1274.49 915.901L1274.93 915.787L1274.93 929.124L1274.49 929.261ZM1274.49 943.339L1274.49 930.003L1274.93 929.866L1274.93 943.173L1274.49 943.339ZM1274.49 957.494L1274.49 944.179L1274.93 944.013L1274.93 957.291L1274.49 957.494Z" fill="url(#paint0_linear_364_679)"/>
<defs>
<linearGradient id="paint0_linear_364_679" x1="1280.92" y1="790.084" x2="-51.0345" y2="790.084" gradientUnits="userSpaceOnUse">
<stop stop-color="white" stop-opacity="0"/>
<stop offset="0.307692" stop-color="white"/>
</linearGradient>
</defs>
</svg>
