<svg width="1280" height="698" viewBox="0 0 1280 698" fill="none" xmlns="http://www.w3.org/2000/svg">
<path d="M474.11 697.24L-149.9 0.907882L-149.792 4.49956e-05L1429.89 0.000183096L1430 0.90802L805.99 697.24L474.11 697.24ZM-19.7126 0.964412L-148.871 0.964401L-14.5952 150.802L89.5302 150.802L-19.7126 0.964412ZM82.1489 0.964421L-18.8721 0.964412L90.3707 150.802L172.444 150.803L82.1489 0.964421ZM165.939 0.964428L82.8902 0.964421L173.185 150.803L241.174 150.803L165.939 0.964428ZM237.553 0.964434L166.606 0.964428L241.842 150.803L300.349 150.803L237.553 0.964434ZM300.65 0.96444L238.165 0.964434L300.961 150.803L352.839 150.803L300.65 0.96444ZM357.634 0.964445L301.218 0.96444L353.408 150.803L400.533 150.803L357.634 0.964445ZM410.169 0.964449L358.17 0.964445L401.069 150.803L444.734 150.803L410.169 0.964449ZM459.454 0.964454L410.679 0.964449L445.244 150.803L486.385 150.803L459.454 0.964454ZM506.398 0.964458L459.945 0.964454L486.876 150.803L526.198 150.803L506.398 0.964458ZM551.72 0.964462L506.875 0.964458L526.675 150.803L564.738 150.803L551.72 0.964462ZM596.018 0.964466L552.187 0.964462L565.205 150.803L602.474 150.803L596.018 0.964466ZM639.82 0.964469L596.48 0.964466L602.936 150.803L639.82 150.803L639.82 0.964469ZM683.621 0.964473L640.28 0.96447L640.28 150.803L677.165 150.803L683.621 0.964473ZM727.913 0.964477L684.082 0.964473L677.626 150.803L714.895 150.803L727.913 0.964477ZM773.225 0.964481L728.38 0.964477L715.363 150.803L753.426 150.803L773.225 0.964481ZM820.155 0.964485L773.702 0.964481L753.903 150.803L793.224 150.803L820.155 0.964485ZM869.421 0.96449L820.646 0.964485L793.716 150.803L834.856 150.803L869.421 0.96449ZM921.93 0.964494L869.932 0.96449L835.366 150.803L879.031 150.803L921.93 0.964494ZM978.881 0.964499L922.466 0.964494L879.567 150.803L926.691 150.803L978.881 0.964499ZM1041.94 0.964505L979.45 0.964499L927.261 150.803L979.139 150.803L1041.94 0.964505ZM1113.49 0.964511L1042.55 0.964505L979.751 150.803L1038.26 150.803L1113.49 0.964511ZM1197.21 0.964518L1114.16 0.964511L1038.93 150.803L1106.92 150.803L1197.21 0.964518ZM1298.97 0.964527L1197.95 0.964518L1107.66 150.803L1189.73 150.803L1298.97 0.964527ZM1428.97 0.964538L1299.81 0.964527L1190.57 150.803L1294.7 150.803L1428.97 0.964538ZM90.2333 151.767L-13.7309 151.767L94.5417 272.588L178.32 272.588L90.2333 151.767ZM173.025 151.767L91.0739 151.767L179.161 272.588L245.834 272.588L173.025 151.767ZM241.658 151.767L173.766 151.767L246.575 272.588L302.324 272.588L241.658 151.767ZM300.753 151.767L242.326 151.767L302.992 272.588L351.389 272.588L300.753 151.767ZM353.176 151.767L301.365 151.767L352 272.588L395.259 272.588L353.176 151.767ZM400.809 151.767L353.744 151.767L395.827 272.588L435.4 272.588L400.809 151.767ZM444.956 151.767L401.345 151.767L435.936 272.588L472.828 272.588L444.956 151.767ZM486.558 151.767L445.467 151.767L473.338 272.588L508.273 272.588L486.558 151.767ZM526.325 151.767L487.049 151.767L508.765 272.588L542.291 272.588L526.325 151.767ZM564.821 151.767L526.802 151.767L542.768 272.588L575.318 272.588L564.821 151.767ZM602.516 151.767L565.288 151.767L575.785 272.588L607.721 272.588L602.516 151.767ZM639.82 151.767L602.977 151.767L608.182 272.588L639.82 272.588L639.82 151.767ZM677.123 151.767L640.28 151.767L640.28 272.588L671.918 272.588L677.123 151.767ZM714.812 151.767L677.585 151.767L672.379 272.588L704.315 272.588L714.812 151.767ZM753.298 151.767L715.279 151.767L704.782 272.588L737.332 272.588L753.298 151.767ZM793.051 151.767L753.775 151.767L737.809 272.588L771.336 272.588L793.051 151.767ZM834.633 151.767L793.542 151.767L771.827 272.588L806.762 272.588L834.633 151.767ZM878.755 151.767L835.144 151.767L807.272 272.588L844.164 272.588L878.755 151.767ZM926.356 151.767L879.291 151.767L844.7 272.588L884.272 272.588L926.356 151.767ZM978.735 151.767L926.925 151.767L884.841 272.588L928.099 272.588L978.735 151.767ZM1037.77 151.767L979.347 151.767L928.711 272.588L977.108 272.588L1037.77 151.767ZM1106.33 151.767L1038.44 151.767L977.776 272.588L1033.53 272.588L1106.33 151.767ZM1189.03 151.767L1107.08 151.767L1034.27 272.588L1100.94 272.588L1189.03 151.767ZM1293.83 151.767L1189.87 151.767L1101.78 272.588L1185.56 272.588L1293.83 151.767ZM179.023 273.553L95.4059 273.552L182.009 370.193L249.481 370.193L179.023 273.553ZM246.415 273.553L179.864 273.553L250.322 370.193L304.652 370.193L246.415 273.553ZM302.809 273.553L247.156 273.553L305.393 370.193L351.333 370.193L302.809 273.553ZM351.793 273.553L303.476 273.553L352 370.193L392.294 370.193L351.793 273.553ZM395.594 273.553L352.405 273.553L392.906 370.193L429.255 370.193L395.594 273.553ZM435.676 273.553L396.163 273.553L429.824 370.193L463.345 370.193L435.676 273.553ZM473.05 273.553L436.212 273.553L463.881 370.193L495.344 370.193L473.05 273.553ZM508.447 273.553L473.561 273.553L495.854 370.193L525.816 370.193L508.447 273.553ZM542.418 273.553L508.938 273.553L526.307 370.193L555.188 370.193L542.418 273.553ZM575.402 273.553L542.895 273.553L555.665 370.193L583.798 370.193L575.402 273.553ZM607.763 273.553L575.869 273.553L584.265 370.193L611.926 370.193L607.763 273.553ZM639.82 273.553L608.224 273.553L612.387 370.193L639.82 370.193L639.82 273.553ZM671.876 273.553L640.28 273.553L640.28 370.193L667.713 370.193L671.876 273.553ZM704.231 273.553L672.338 273.553L668.174 370.193L695.835 370.193L704.231 273.553ZM737.205 273.553L704.698 273.553L696.302 370.193L724.435 370.193L737.205 273.553ZM771.162 273.553L737.682 273.553L724.912 370.193L753.793 370.193L771.162 273.553ZM806.539 273.553L771.653 273.553L754.284 370.193L784.246 370.193L806.539 273.553ZM843.888 273.553L807.05 273.553L784.756 370.193L816.219 370.193L843.888 273.553ZM883.936 273.553L844.423 273.553L816.755 370.193L850.276 370.193L883.936 273.553ZM927.695 273.553L884.506 273.553L850.845 370.193L887.194 370.193L927.695 273.553ZM976.624 273.553L928.307 273.553L887.805 370.193L928.1 370.193L976.624 273.553ZM1032.94 273.553L977.292 273.553L928.768 370.193L974.707 370.193L1032.94 273.553ZM1100.24 273.553L1033.69 273.553L975.449 370.193L1029.78 370.193L1100.24 273.553ZM1184.69 273.553L1101.08 273.553L1030.62 370.193L1098.09 370.193L1184.69 273.553ZM250.185 371.157L182.874 371.157L251.539 447.781L306.049 447.781L250.185 371.157ZM305.233 371.157L251.025 371.157L306.89 447.781L351.407 447.781L305.233 371.157ZM351.817 371.157L305.974 371.157L352.149 447.781L390.291 447.781L351.817 371.157ZM392.698 371.157L352.484 371.157L390.958 447.781L424.811 447.781L392.698 371.157ZM429.591 371.157L393.31 371.157L425.423 447.781L456.28 447.781L429.591 371.157ZM463.621 371.157L430.16 371.157L456.849 447.781L485.558 447.781L463.621 371.157ZM495.566 371.157L464.157 371.157L486.095 447.781L513.242 447.781L495.566 371.157ZM525.989 371.157L496.077 371.157L513.753 447.781L539.761 447.781L525.989 371.157ZM555.316 371.157L526.481 371.157L540.253 447.781L565.441 447.781L555.316 371.157ZM583.882 371.157L555.793 371.157L565.918 447.781L590.539 447.781L583.882 371.157ZM611.968 371.157L584.349 371.157L591.006 447.781L615.269 447.781L611.968 371.157ZM639.82 371.157L612.429 371.157L615.73 447.781L639.82 447.781L639.82 371.157ZM667.671 371.157L640.28 371.157L640.28 447.781L664.37 447.781L667.671 371.157ZM695.751 371.157L668.132 371.157L664.831 447.781L689.094 447.781L695.751 371.157ZM724.307 371.157L696.218 371.157L689.561 447.781L714.182 447.781L724.307 371.157ZM753.619 371.157L724.784 371.157L714.659 447.781L739.848 447.781L753.619 371.157ZM784.023 371.157L754.111 371.157L740.339 447.781L766.347 447.781L784.023 371.157ZM815.943 371.157L784.534 371.157L766.858 447.781L794.005 447.781L815.943 371.157ZM849.94 371.157L816.479 371.157L794.542 447.781L823.251 447.781L849.94 371.157ZM886.79 371.157L850.509 371.157L823.82 447.781L854.677 447.781L886.79 371.157ZM927.616 371.157L887.402 371.157L855.289 447.781L889.142 447.781L927.616 371.157ZM974.126 371.157L928.283 371.157L889.809 447.781L927.951 447.781L974.126 371.157ZM1029.07 371.157L974.867 371.157L928.693 447.781L973.21 447.781L1029.07 371.157ZM1097.23 371.157L1029.92 371.157L974.051 447.781L1028.56 447.781L1097.23 371.157ZM306.752 448.746L252.404 448.746L306.324 508.915L350.62 508.915L306.752 448.746ZM351.989 448.746L307.593 448.746L351.461 508.915L388.248 508.915L351.989 448.746ZM390.775 448.746L352.73 448.746L388.989 508.915L420.987 508.915L390.775 448.746ZM425.215 448.746L391.442 448.746L421.654 508.915L450.432 508.915L425.215 448.746ZM456.616 448.746L425.827 448.746L451.044 508.915L477.574 508.915L456.616 448.746ZM485.834 448.746L457.185 448.746L478.142 508.915L503.061 508.915L485.834 448.746ZM513.465 448.746L486.371 448.746L503.597 508.915L527.345 508.915L513.465 448.746ZM539.934 448.746L513.975 448.746L527.855 508.915L550.749 508.915L539.934 448.746ZM565.568 448.746L540.426 448.746L551.24 508.915L573.519 508.915L565.568 448.746ZM590.623 448.746L566.045 448.746L573.996 508.915L595.85 508.915L590.623 448.746ZM615.31 448.746L591.089 448.746L596.317 508.915L617.903 508.915L615.31 448.746ZM639.82 448.746L615.772 448.746L618.364 508.915L639.82 508.915L639.82 448.746ZM664.328 448.746L640.28 448.746L640.28 508.915L661.736 508.915L664.328 448.746ZM689.01 448.746L664.79 448.746L662.197 508.915L683.783 508.915L689.01 448.746ZM714.055 448.746L689.478 448.746L684.25 508.915L706.104 508.915L714.055 448.746ZM739.674 448.746L714.532 448.746L706.581 508.915L728.86 508.915L739.674 448.746ZM766.125 448.746L740.166 448.746L729.351 508.915L752.245 508.915L766.125 448.746ZM793.729 448.746L766.636 448.746L752.755 508.915L776.503 508.915L793.729 448.746ZM822.915 448.746L794.265 448.746L777.039 508.915L801.958 508.915L822.915 448.746ZM854.273 448.746L823.484 448.746L802.527 508.915L829.056 508.915L854.273 448.746ZM888.658 448.746L854.885 448.746L829.668 508.915L858.446 508.915L888.658 448.746ZM927.37 448.746L889.325 448.746L859.113 508.915L891.111 508.915L927.37 448.746ZM972.507 448.746L928.112 448.746L891.852 508.915L928.639 508.915L972.507 448.746ZM1027.7 448.746L973.348 448.746L929.48 508.915L973.776 508.915L1027.7 448.746ZM351.323 509.88L307.188 509.88L349.082 556.629L385.407 556.629L351.323 509.88ZM388.829 509.88L352.164 509.88L386.248 556.629L417.001 556.629L388.829 509.88ZM421.471 509.88L389.57 509.88L417.742 556.629L444.944 556.629L421.471 509.88ZM450.836 509.88L422.138 509.88L445.612 556.629L470.428 556.629L450.836 509.88ZM477.909 509.88L451.448 509.88L471.04 556.629L494.193 556.629L477.909 509.88ZM503.337 509.88L478.478 509.88L494.762 556.629L516.722 556.629L503.337 509.88ZM527.567 509.88L503.873 509.88L517.258 556.629L538.352 556.629L527.567 509.88ZM550.922 509.88L528.078 509.88L538.862 556.629L559.325 556.629L550.922 509.88ZM573.647 509.88L551.414 509.88L559.816 556.629L579.824 556.629L573.647 509.88ZM595.934 509.88L574.124 509.88L580.301 556.629L599.995 556.629L595.934 509.88ZM617.945 509.88L596.401 509.88L600.462 556.629L619.958 556.629L617.945 509.88ZM639.82 509.88L618.406 509.88L620.42 556.629L639.82 556.629L639.82 509.88ZM661.694 509.88L640.28 509.88L640.28 556.629L659.68 556.629L661.694 509.88ZM683.699 509.88L662.156 509.88L660.142 556.629L679.638 556.629L683.699 509.88ZM705.976 509.88L684.166 509.88L680.105 556.629L699.799 556.629L705.976 509.88ZM728.687 509.88L706.453 509.88L700.276 556.629L720.284 556.629L728.687 509.88ZM752.022 509.88L729.178 509.88L720.775 556.629L741.238 556.629L752.022 509.88ZM776.227 509.88L752.533 509.88L741.748 556.629L762.842 556.629L776.227 509.88ZM801.621 509.88L776.763 509.88L763.378 556.629L785.338 556.629L801.621 509.88ZM828.652 509.88L802.191 509.88L785.907 556.629L809.06 556.629L828.652 509.88ZM857.962 509.88L829.264 509.88L809.671 556.629L834.488 556.629L857.962 509.88ZM890.53 509.88L858.629 509.88L835.156 556.629L862.358 556.629L890.53 509.88ZM927.936 509.88L891.271 509.88L863.1 556.629L893.853 556.629L927.936 509.88ZM972.912 509.88L928.777 509.88L894.693 556.629L931.018 556.629L972.912 509.88ZM386.11 557.593L349.946 557.593L382.111 593.486L412.278 593.486L386.11 557.593ZM417.582 557.593L386.951 557.593L413.119 593.486L439.211 593.486L417.582 557.593ZM445.429 557.593L418.323 557.593L439.952 593.486L463.451 593.486L445.429 557.593ZM470.833 557.593L446.096 557.593L464.118 593.486L485.875 593.486L470.833 557.593ZM494.529 557.593L471.445 557.593L486.487 593.486L507.03 593.486L494.529 557.593ZM516.998 557.593L495.097 557.593L507.599 593.486L527.274 593.486L516.998 557.593ZM538.574 557.593L517.534 557.593L527.81 593.486L546.854 593.486L538.574 557.593ZM559.498 557.593L539.085 557.593L547.365 593.486L565.949 593.486L559.498 557.593ZM579.952 557.593L559.989 557.593L566.44 593.486L584.694 593.486L579.952 557.593ZM600.079 557.593L580.429 557.593L585.171 593.486L603.197 593.486L600.079 557.593ZM620 557.593L600.546 557.593L603.664 593.486L621.547 593.486L620 557.593ZM639.82 557.593L620.461 557.593L622.008 593.486L639.82 593.486L639.82 557.593ZM659.639 557.593L640.28 557.593L640.28 593.486L658.092 593.486L659.639 557.593ZM679.554 557.593L660.1 557.593L658.554 593.486L676.435 593.486L679.554 557.593ZM699.672 557.593L680.021 557.593L676.903 593.486L694.929 593.486L699.672 557.593ZM720.111 557.593L700.149 557.593L695.406 593.486L713.66 593.486L720.111 557.593ZM741.015 557.593L720.602 557.593L714.151 593.486L732.736 593.486L741.015 557.593ZM762.566 557.593L741.526 557.593L733.246 593.486L752.29 593.486L762.566 557.593ZM785.002 557.593L763.102 557.593L752.826 593.486L772.5 593.486L785.002 557.593ZM808.655 557.593L785.571 557.593L773.07 593.486L793.613 593.486L808.655 557.593ZM834.004 557.593L809.267 557.593L794.224 593.486L815.982 593.486L834.004 557.593ZM861.777 557.593L834.672 557.593L816.649 593.486L840.148 593.486L861.777 557.593ZM893.149 557.593L862.518 557.593L840.889 593.486L866.981 593.486L893.149 557.593ZM930.154 557.593L893.99 557.593L867.822 593.486L897.989 593.486L930.154 557.593ZM412.981 594.45L382.975 594.45L407.34 621.638L432.803 621.638L412.981 594.45ZM439.792 594.45L413.822 594.45L433.644 621.638L456.176 621.638L439.792 594.45ZM463.935 594.45L440.534 594.45L456.917 621.638L477.586 621.638L463.935 594.45ZM486.279 594.45L464.602 594.45L478.253 621.638L497.673 621.638L486.279 594.45ZM507.366 594.45L486.891 594.45L498.286 621.638L516.836 621.638L507.366 594.45ZM527.55 594.45L507.935 594.45L517.405 621.638L535.334 621.638L527.55 594.45ZM547.076 594.45L528.086 594.45L535.87 621.638L553.348 621.638L547.076 594.45ZM566.122 594.45L547.587 594.45L553.859 621.638L571.009 621.638L566.122 594.45ZM584.822 594.45L566.614 594.45L571.5 621.638L588.414 621.638L584.822 594.45ZM603.281 594.45L585.299 594.45L588.891 621.638L605.643 621.638L603.281 594.45ZM621.588 594.45L603.748 594.45L606.11 621.638L622.759 621.638L621.588 594.45ZM639.82 594.45L622.05 594.45L623.221 621.638L639.82 621.638L639.82 594.45ZM658.051 594.45L640.28 594.45L640.28 621.638L656.879 621.638L658.051 594.45ZM676.351 594.45L658.512 594.45L657.341 621.638L673.99 621.638L676.351 594.45ZM694.801 594.45L676.819 594.45L674.457 621.638L691.209 621.638L694.801 594.45ZM713.486 594.45L695.278 594.45L691.686 621.638L708.6 621.638L713.486 594.45ZM732.513 594.45L713.978 594.45L709.091 621.638L726.241 621.638L732.513 594.45ZM752.014 594.45L733.024 594.45L726.752 621.638L744.23 621.638L752.014 594.45ZM772.165 594.45L752.55 594.45L744.766 621.638L762.695 621.638L772.165 594.45ZM793.209 594.45L772.734 594.45L763.264 621.638L781.815 621.638L793.209 594.45ZM815.498 594.45L793.821 594.45L782.426 621.638L801.847 621.638L815.498 594.45ZM839.566 594.45L816.165 594.45L802.514 621.638L823.183 621.638L839.566 594.45ZM866.278 594.45L840.308 594.45L823.924 621.638L846.456 621.638L866.278 594.45ZM897.125 594.45L867.118 594.45L847.297 621.638L872.76 621.638L897.125 594.45ZM433.506 622.603L408.204 622.603L426.376 642.882L448.291 642.882L433.506 622.603ZM456.757 622.603L434.347 622.603L449.132 642.882L468.978 642.882L456.757 622.603ZM478.07 622.603L457.498 622.603L469.719 642.882L488.253 642.882L478.07 622.603ZM498.078 622.603L478.738 622.603L488.92 642.882L506.576 642.882L498.078 622.603ZM517.172 622.603L498.689 622.603L507.189 642.882L524.235 642.882L517.172 622.603ZM535.61 622.603L517.741 622.603L524.804 642.882L541.416 642.882L535.61 622.603ZM553.571 622.603L536.146 622.603L541.952 642.882L558.249 642.882L553.571 622.603ZM571.182 622.603L554.081 622.603L558.759 642.882L574.827 642.882L571.182 622.603ZM588.542 622.603L571.673 622.603L575.318 642.882L591.222 642.882L588.542 622.603ZM605.727 622.603L589.019 622.603L591.699 642.882L607.489 642.882L605.727 622.603ZM622.801 622.603L606.194 622.603L607.956 642.882L623.674 642.882L622.801 622.603ZM639.82 622.603L623.262 622.603L624.136 642.882L639.82 642.882L639.82 622.603ZM656.838 622.603L640.28 622.603L640.28 642.882L655.964 642.882L656.838 622.603ZM673.906 622.603L657.299 622.603L656.426 642.882L672.144 642.882L673.906 622.603ZM691.081 622.603L674.373 622.603L672.611 642.882L688.401 642.882L691.081 622.603ZM708.427 622.603L691.558 622.603L688.878 642.882L704.782 642.882L708.427 622.603ZM726.019 622.603L708.918 622.603L705.273 642.882L721.341 642.882L726.019 622.603ZM743.954 622.603L726.529 622.603L721.851 642.882L738.148 642.882L743.954 622.603ZM762.359 622.603L744.49 622.603L738.684 642.882L755.295 642.882L762.359 622.603ZM781.411 622.603L762.928 622.603L755.865 642.882L772.912 642.882L781.411 622.603ZM801.362 622.603L782.022 622.603L773.523 642.882L791.18 642.882L801.362 622.603ZM822.602 622.603L802.03 622.603L791.847 642.882L810.381 642.882L822.602 622.603ZM845.753 622.603L823.343 622.603L811.122 642.882L830.968 642.882L845.753 622.603ZM871.896 622.603L846.594 622.603L831.809 642.882L853.724 642.882L871.896 622.603ZM448.994 643.846L427.241 643.846L440.55 658.698L459.822 658.698L448.994 643.846ZM469.559 643.846L449.835 643.846L460.663 658.698L478.509 658.698L469.559 643.846ZM488.737 643.846L470.3 643.846L479.25 658.698L496.194 658.698L488.737 643.846ZM506.981 643.846L489.404 643.846L496.862 658.698L513.205 658.698L506.981 643.846ZM524.571 643.846L507.592 643.846L513.817 658.698L529.744 658.698L524.571 643.846ZM541.692 643.846L525.14 643.846L530.313 658.698L545.944 658.698L541.692 643.846ZM558.471 643.846L542.228 643.846L546.48 658.698L561.897 658.698L558.471 643.846ZM575 643.846L558.982 643.846L562.408 658.698L577.67 658.698L575 643.846ZM591.349 643.846L575.492 643.846L578.161 658.698L593.311 658.698L591.349 643.846ZM607.572 643.846L591.826 643.846L593.788 658.698L608.863 658.698L607.572 643.846ZM623.716 643.846L608.039 643.846L609.33 658.698L624.356 658.698L623.716 643.846ZM639.82 643.846L624.177 643.846L624.817 658.698L639.82 658.698L639.82 643.846ZM655.923 643.846L640.28 643.846L640.28 658.698L655.283 658.698L655.923 643.846ZM672.06 643.846L656.384 643.846L655.744 658.698L670.77 658.698L672.06 643.846ZM688.274 643.846L672.528 643.846L671.237 658.698L686.312 658.698L688.274 643.846ZM704.609 643.846L688.751 643.846L686.789 658.698L701.939 658.698L704.609 643.846ZM721.118 643.846L705.1 643.846L702.43 658.698L717.692 658.698L721.118 643.846ZM737.872 643.846L721.629 643.846L718.203 658.698L733.62 658.698L737.872 643.846ZM754.96 643.846L738.408 643.846L734.156 658.698L749.787 658.698L754.96 643.846ZM772.508 643.846L755.529 643.846L750.356 658.698L766.283 658.698L772.508 643.846ZM790.696 643.846L773.119 643.846L766.895 658.698L783.238 658.698L790.696 643.846ZM809.8 643.846L791.363 643.846L783.906 658.698L800.85 658.698L809.8 643.846ZM830.265 643.846L810.541 643.846L801.591 658.698L819.437 658.698L830.265 643.846ZM852.859 643.846L831.105 643.846L820.277 658.698L839.55 658.698L852.859 643.846ZM460.525 659.662L441.414 659.662L450.949 670.301L468.282 670.301L460.525 659.662ZM479.09 659.662L461.366 659.662L469.123 670.301L485.501 670.301L479.09 659.662ZM496.679 659.662L479.831 659.662L486.242 670.301L502.02 670.301L496.679 659.662ZM513.609 659.662L497.346 659.662L502.688 670.301L518.068 670.301L513.609 659.662ZM530.08 659.662L514.221 659.662L518.68 670.301L533.786 670.301L530.08 659.662ZM546.22 659.662L530.649 659.662L534.355 670.301L549.266 670.301L546.22 659.662ZM562.12 659.662L546.756 659.662L549.802 670.301L564.574 670.301L562.12 659.662ZM577.843 659.662L562.63 659.662L565.085 670.301L579.755 670.301L577.843 659.662ZM593.439 659.662L578.334 659.662L580.246 670.301L594.845 670.301L593.439 659.662ZM608.946 659.662L593.916 659.662L595.322 670.301L609.871 670.301L608.946 659.662ZM624.397 659.662L609.414 659.662L610.338 670.301L624.856 670.301L624.397 659.662ZM639.82 659.662L624.859 659.662L625.317 670.301L639.82 670.301L639.82 659.662ZM655.241 659.662L640.28 659.662L640.28 670.301L654.783 670.301L655.241 659.662ZM670.686 659.662L655.703 659.662L655.244 670.301L669.762 670.301L670.686 659.662ZM686.184 659.662L671.154 659.662L670.229 670.301L684.778 670.301L686.184 659.662ZM701.766 659.662L686.661 659.662L685.255 670.301L699.854 670.301L701.766 659.662ZM717.47 659.662L702.257 659.662L700.345 670.301L715.015 670.301L717.47 659.662ZM733.344 659.662L717.981 659.662L715.526 670.301L730.298 670.301L733.344 659.662ZM749.451 659.662L733.88 659.662L730.834 670.301L745.745 670.301L749.451 659.662ZM765.879 659.662L750.02 659.662L746.314 670.301L761.42 670.301L765.879 659.662ZM782.754 659.662L766.491 659.662L762.032 670.301L777.412 670.301L782.754 659.662ZM800.269 659.662L783.421 659.662L778.08 670.301L793.858 670.301L800.269 659.662ZM818.734 659.662L801.01 659.662L794.599 670.301L810.977 670.301L818.734 659.662ZM838.686 659.662L819.575 659.662L811.818 670.301L829.152 670.301L838.686 659.662ZM468.985 671.266L451.813 671.266L458.454 678.676L474.388 678.676L468.985 671.266ZM486.083 671.266L469.826 671.266L475.229 678.676L490.548 678.676L486.083 671.266ZM502.505 671.266L486.823 671.266L491.289 678.676L506.226 678.676L502.505 671.266ZM518.472 671.266L503.172 671.266L506.893 678.676L521.578 678.676L518.472 671.266ZM534.122 671.266L519.084 671.266L522.19 678.676L536.703 678.676L534.122 671.266ZM549.542 671.266L534.69 671.266L537.272 678.676L551.664 678.676L549.542 671.266ZM564.796 671.266L550.079 671.266L552.2 678.676L566.506 678.676L564.796 671.266ZM579.929 671.266L565.307 671.266L567.017 678.676L581.261 678.676L579.929 671.266ZM594.972 671.266L580.42 671.266L581.751 678.676L595.952 678.676L594.972 671.266ZM609.955 671.266L595.449 671.266L596.429 678.676L610.599 678.676L609.955 671.266ZM624.897 671.266L610.421 671.266L611.065 678.676L625.217 678.676L624.897 671.266ZM639.82 671.266L625.359 671.266L625.678 678.676L639.82 678.676L639.82 671.266ZM654.741 671.266L640.28 671.266L640.28 678.676L654.422 678.676L654.741 671.266ZM669.678 671.266L655.203 671.266L654.883 678.676L669.034 678.676L669.678 671.266ZM684.651 671.266L670.145 671.266L669.501 678.676L683.671 678.676L684.651 671.266ZM699.68 671.266L685.128 671.266L684.148 678.676L698.349 678.676L699.68 671.266ZM714.793 671.266L700.171 671.266L698.84 678.676L713.083 678.677L714.793 671.266ZM730.022 671.266L715.304 671.266L713.594 678.677L727.9 678.677L730.022 671.266ZM745.409 671.266L730.558 671.266L728.436 678.677L742.828 678.677L745.409 671.266ZM761.016 671.266L745.978 671.266L743.397 678.677L757.91 678.677L761.016 671.266ZM776.928 671.266L761.628 671.266L758.522 678.677L773.207 678.677L776.928 671.266ZM793.277 671.266L777.595 671.266L773.874 678.677L788.811 678.677L793.277 671.266ZM810.274 671.266L794.018 671.266L789.552 678.677L804.871 678.677L810.274 671.266ZM828.287 671.266L811.115 671.266L805.712 678.677L821.646 678.677L828.287 671.266ZM475.091 679.641L459.318 679.641L463.775 684.614L478.717 684.614L475.091 679.641ZM491.13 679.641L475.932 679.641L479.558 684.614L494.126 684.614L491.13 679.641ZM506.71 679.641L491.87 679.641L494.867 684.614L509.207 684.614L506.71 679.641ZM521.982 679.641L507.377 679.641L509.875 684.614L524.067 684.614L521.982 679.641ZM537.039 679.641L522.594 679.641L524.678 684.614L538.771 684.614L537.039 679.641ZM551.94 679.641L537.608 679.641L539.34 684.614L553.364 684.614L551.94 679.641ZM566.729 679.641L552.476 679.641L553.9 684.614L567.876 684.614L566.729 679.641ZM581.434 679.641L567.239 679.641L568.387 684.614L582.328 684.614L581.434 679.641ZM596.079 679.641L581.925 679.641L582.819 684.614L596.736 684.614L596.079 679.641ZM610.682 679.641L596.556 679.641L597.213 684.614L611.114 684.614L610.682 679.641ZM625.258 679.641L611.149 679.641L611.581 684.614L625.473 684.614L625.258 679.641ZM639.82 679.641L625.72 679.641L625.934 684.614L639.82 684.614L639.82 679.641ZM654.38 679.641L640.28 679.641L640.28 684.614L654.166 684.614L654.38 679.641ZM668.95 679.641L654.842 679.641L654.628 684.614L668.518 684.614L668.95 679.641ZM683.544 679.641L669.418 679.641L668.986 684.614L682.887 684.614L683.544 679.641ZM698.175 679.641L684.021 679.641L683.364 684.614L697.281 684.614L698.175 679.641ZM712.861 679.641L698.666 679.641L697.772 684.614L711.713 684.614L712.861 679.641ZM727.624 679.641L713.372 679.641L712.224 684.614L726.2 684.614L727.624 679.641ZM742.492 679.641L728.16 679.641L726.736 684.614L740.76 684.614L742.492 679.641ZM757.506 679.641L743.061 679.641L741.329 684.614L755.422 684.614L757.506 679.641ZM772.723 679.641L758.118 679.641L756.033 684.614L770.225 684.614L772.723 679.641ZM788.23 679.641L773.39 679.641L770.893 684.614L785.233 684.614L788.23 679.641ZM804.168 679.641L788.971 679.641L785.974 684.614L800.542 684.614L804.168 679.641ZM820.782 679.641L805.008 679.641L801.383 684.614L816.325 684.614L820.782 679.641ZM479.42 685.579L464.639 685.579L467.472 688.739L481.724 688.739L479.42 685.579ZM494.708 685.579L480.261 685.579L482.565 688.739L496.612 688.739L494.708 685.579ZM509.692 685.579L495.449 685.579L497.354 688.739L511.278 688.739L509.692 685.579ZM524.47 685.579L510.359 685.579L511.946 688.739L525.795 688.739L524.47 685.579ZM539.107 685.579L525.082 685.579L526.407 688.739L540.208 688.739L539.107 685.579ZM553.64 685.579L539.676 685.579L540.777 688.739L554.545 688.739L553.64 685.579ZM568.098 685.579L554.176 685.579L555.081 688.739L568.827 688.739L568.098 685.579ZM582.501 685.579L568.609 685.579L569.338 688.739L583.069 688.739L582.501 685.579ZM596.864 685.579L582.992 685.579L583.56 688.739L597.281 688.739L596.864 685.579ZM611.198 685.579L597.341 685.579L597.758 688.739L611.473 688.739L611.198 685.579ZM625.514 685.579L611.665 685.579L611.939 688.739L625.65 688.739L625.514 685.579ZM639.82 685.579L625.976 685.579L626.112 688.739L639.82 688.739L639.82 685.579ZM654.125 685.579L640.28 685.579L640.28 688.739L653.989 688.739L654.125 685.579ZM668.435 685.579L654.586 685.579L654.45 688.739L668.16 688.739L668.435 685.579ZM682.759 685.579L668.902 685.579L668.627 688.739L682.342 688.739L682.759 685.579ZM697.108 685.579L683.236 685.579L682.819 688.739L696.54 688.739L697.108 685.579ZM711.491 685.579L697.599 685.579L697.031 688.739L710.762 688.739L711.491 685.579ZM725.924 685.579L712.002 685.579L711.273 688.739L725.019 688.739L725.924 685.579ZM740.424 685.579L726.46 685.579L725.555 688.739L739.323 688.739L740.424 685.579ZM755.018 685.579L740.993 685.579L739.892 688.739L753.693 688.739L755.018 685.579ZM769.741 685.579L755.629 685.579L754.305 688.739L768.154 688.739L769.741 685.579ZM784.651 685.579L770.409 685.579L768.822 688.739L782.747 688.739L784.651 685.579ZM799.839 685.579L785.392 685.579L783.488 688.739L797.535 688.739L799.839 685.579ZM815.461 685.579L800.68 685.579L798.375 688.739L812.629 688.739L815.461 685.579ZM482.428 689.704L468.335 689.704L469.981 691.54L483.767 691.54L482.428 689.704ZM497.193 689.704L483.268 689.704L484.608 691.54L498.3 691.54L497.193 689.704ZM511.763 689.704L497.935 689.704L499.041 691.54L512.685 691.54L511.763 689.704ZM526.199 689.704L512.43 689.704L513.352 691.54L526.969 691.54L526.199 689.704ZM540.544 689.704L526.811 689.704L527.581 691.54L541.184 691.54L540.544 689.704ZM554.821 689.704L541.113 689.704L541.752 691.54L555.347 691.54L554.821 689.704ZM569.05 689.704L555.357 689.704L555.883 691.54L569.474 691.54L569.05 689.704ZM583.242 689.704L569.561 689.704L569.984 691.54L583.572 691.54L583.242 689.704ZM597.409 689.704L583.734 689.704L584.064 691.54L597.652 691.54L597.409 689.704ZM611.557 689.704L597.886 689.704L598.129 691.54L611.716 691.54L611.557 689.704ZM625.692 689.704L612.023 689.704L612.183 691.54L625.771 691.54L625.692 689.704ZM639.82 689.704L626.153 689.704L626.232 691.54L639.82 691.54L639.82 689.704ZM653.947 689.704L640.28 689.704L640.28 691.54L653.868 691.54L653.947 689.704ZM668.076 689.704L654.408 689.704L654.329 691.54L667.917 691.54L668.076 689.704ZM682.214 689.704L668.543 689.704L668.384 691.54L681.971 691.54L682.214 689.704ZM696.367 689.704L682.691 689.704L682.448 691.54L696.036 691.54L696.367 689.704ZM710.54 689.704L696.858 689.704L696.528 691.54L710.116 691.54L710.54 689.704ZM724.743 689.704L711.05 689.704L710.627 691.54L724.217 691.54L724.743 689.704ZM738.987 689.704L725.279 689.704L724.753 691.54L738.347 691.54L738.987 689.704ZM753.289 689.704L739.556 689.704L738.916 691.54L752.519 691.54L753.289 689.704ZM767.67 689.704L753.9 689.704L753.131 691.54L766.748 691.54L767.67 689.704ZM782.165 689.704L768.338 689.704L767.415 691.54L781.059 691.54L782.165 689.704ZM796.832 689.704L782.907 689.704L781.8 691.54L795.493 691.54L796.832 689.704ZM811.765 689.704L797.672 689.704L796.333 691.54L810.119 691.54L811.765 689.704ZM484.47 692.504L470.846 692.504L471.642 693.393L485.118 693.393L484.47 692.504ZM498.881 692.504L485.31 692.504L485.959 693.393L499.417 693.393L498.881 692.504ZM513.169 692.504L499.622 692.504L500.158 693.393L513.615 693.393L513.169 692.504ZM527.373 692.504L513.836 692.504L514.283 693.393L527.746 693.393L527.373 692.504ZM541.519 692.504L527.985 692.504L528.358 693.393L541.829 693.393L541.519 692.504ZM555.623 692.504L542.088 692.504L542.398 693.393L555.878 693.393L555.623 692.504ZM569.696 692.504L556.159 692.504L556.413 693.393L569.901 693.393L569.696 692.504ZM583.746 692.504L570.207 692.504L570.412 693.393L583.905 693.393L583.746 692.504ZM597.779 692.504L584.237 692.504L584.397 693.393L597.896 693.393L597.779 692.504ZM611.8 692.504L598.256 692.504L598.373 693.393L611.877 693.393L611.8 692.504ZM625.813 692.504L612.267 692.504L612.344 693.393L625.851 693.393L625.813 692.504ZM639.82 692.504L626.274 692.504L626.312 693.393L639.82 693.393L639.82 692.504ZM653.826 692.504L640.28 692.504L640.28 693.393L653.788 693.393L653.826 692.504ZM667.833 692.504L654.287 692.504L654.249 693.393L667.756 693.394L667.833 692.504ZM681.844 692.504L668.3 692.504L668.223 693.394L681.727 693.394L681.844 692.504ZM695.863 692.504L682.321 692.504L682.204 693.394L695.703 693.394L695.863 692.504ZM709.893 692.504L696.354 692.504L696.195 693.394L709.688 693.394L709.893 692.504ZM723.941 692.504L710.404 692.504L710.199 693.394L723.687 693.394L723.941 692.504ZM738.011 692.504L724.477 692.504L724.222 693.394L737.702 693.394L738.011 692.504ZM752.115 692.504L738.581 692.504L738.271 693.394L751.742 693.394L752.115 692.504ZM766.264 692.504L752.726 692.504L752.354 693.394L765.817 693.394L766.264 692.504ZM780.478 692.504L766.931 692.504L766.485 693.394L779.942 693.394L780.478 692.504ZM794.79 692.504L781.219 692.504L780.683 693.394L794.141 693.394L794.79 692.504ZM809.254 692.504L795.63 692.504L794.982 693.394L808.458 693.394L809.254 692.504ZM485.821 694.358L472.506 694.358L472.71 694.585L485.987 694.585L485.821 694.358ZM499.998 694.358L486.662 694.358L486.827 694.585L500.135 694.585L499.998 694.358ZM514.1 694.358L500.739 694.358L500.876 694.585L514.214 694.585L514.1 694.358ZM528.15 694.358L514.767 694.358L514.881 694.585L528.245 694.585L528.15 694.358ZM542.165 694.358L528.762 694.358L528.857 694.585L542.244 694.585L542.165 694.358ZM556.154 694.358L542.734 694.358L542.813 694.585L556.219 694.585L556.154 694.358ZM570.123 694.358L556.69 694.358L556.754 694.585L570.176 694.585L570.123 694.358ZM584.079 694.358L570.634 694.358L570.686 694.585L584.12 694.585L584.079 694.358ZM598.024 694.358L584.57 694.358L584.611 694.585L598.054 694.585L598.024 694.358ZM611.961 694.358L598.501 694.358L598.531 694.585L611.981 694.585L611.961 694.358ZM625.892 694.358L612.428 694.358L612.447 694.585L625.902 694.585L625.892 694.358ZM639.82 694.358L626.354 694.358L626.364 694.585L639.82 694.585L639.82 694.358ZM653.746 694.358L640.28 694.358L640.28 694.585L653.736 694.585L653.746 694.358ZM667.672 694.358L654.208 694.358L654.198 694.585L667.652 694.585L667.672 694.358ZM681.599 694.358L668.139 694.358L668.119 694.585L681.569 694.585L681.599 694.358ZM695.53 694.358L682.076 694.358L682.046 694.585L695.489 694.585L695.53 694.358ZM709.466 694.358L696.021 694.358L695.98 694.585L709.414 694.585L709.466 694.358ZM723.41 694.358L709.977 694.358L709.924 694.585L723.346 694.585L723.41 694.358ZM737.366 694.358L723.947 694.358L723.881 694.585L737.287 694.585L737.366 694.358ZM751.338 694.358L737.935 694.358L737.856 694.585L751.243 694.585L751.338 694.358ZM765.333 694.358L751.95 694.358L751.854 694.585L765.219 694.585L765.333 694.358ZM779.361 694.358L766.001 694.358L765.887 694.585L779.224 694.585L779.361 694.358ZM793.438 694.358L780.102 694.358L779.965 694.585L793.273 694.585L793.438 694.358ZM807.594 694.358L794.279 694.358L794.113 694.585L807.39 694.585L807.594 694.358Z" fill="url(#paint0_linear_377_1142)"/>
<defs>
<linearGradient id="paint0_linear_377_1142" x1="640.184" y1="697.722" x2="640.184" y2="0.482308" gradientUnits="userSpaceOnUse">
<stop stop-color="white" stop-opacity="0"/>
<stop offset="0.307692" stop-color="white"/>
</linearGradient>
</defs>
</svg>
